%TF.GenerationSoftware,KiCad,Pcbnew,10.0.1*%
%TF.CreationDate,2026-08-22T13:00:34-07:00*%
%TF.ProjectId,PVDX_BatteryBoard,50564458-5f42-4617-9474-657279426f61,rev?*%
%TF.SameCoordinates,Original*%
%TF.FileFunction,Copper,L1,Top*%
%TF.FilePolarity,Positive*%
%FSLAX46Y46*%
G04 Gerber Fmt 4.6, Leading zero omitted, Abs format (unit mm)*
G04 Created by KiCad (PCBNEW 10.0.1) date 2026-08-22 13:00:34*
%MOMM*%
%LPD*%
G01*
G04 APERTURE LIST*
G04 Aperture macros list*
%AMRoundRect*
0 Rectangle with rounded corners*
0 $1 Rounding radius*
0 $2 $3 $4 $5 $6 $7 $8 $9 X,Y pos of 4 corners*
0 Add a 4 corners polygon primitive as box body*
4,1,4,$2,$3,$4,$5,$6,$7,$8,$9,$2,$3,0*
0 Add four circle primitives for the rounded corners*
1,1,$1+$1,$2,$3*
1,1,$1+$1,$4,$5*
1,1,$1+$1,$6,$7*
1,1,$1+$1,$8,$9*
0 Add four rect primitives between the rounded corners*
20,1,$1+$1,$2,$3,$4,$5,0*
20,1,$1+$1,$4,$5,$6,$7,0*
20,1,$1+$1,$6,$7,$8,$9,0*
20,1,$1+$1,$8,$9,$2,$3,0*%
G04 Aperture macros list end*
%TA.AperFunction,SMDPad,CuDef*%
%ADD10RoundRect,0.200000X0.200000X0.275000X-0.200000X0.275000X-0.200000X-0.275000X0.200000X-0.275000X0*%
%TD*%
%TA.AperFunction,SMDPad,CuDef*%
%ADD11RoundRect,0.225000X0.225000X0.250000X-0.225000X0.250000X-0.225000X-0.250000X0.225000X-0.250000X0*%
%TD*%
%TA.AperFunction,ComponentPad*%
%ADD12R,1.700000X1.700000*%
%TD*%
%TA.AperFunction,ComponentPad*%
%ADD13C,1.700000*%
%TD*%
%TA.AperFunction,SMDPad,CuDef*%
%ADD14RoundRect,0.250000X-0.800000X0.450000X-0.800000X-0.450000X0.800000X-0.450000X0.800000X0.450000X0*%
%TD*%
%TA.AperFunction,SMDPad,CuDef*%
%ADD15RoundRect,0.200000X0.275000X-0.200000X0.275000X0.200000X-0.275000X0.200000X-0.275000X-0.200000X0*%
%TD*%
%TA.AperFunction,SMDPad,CuDef*%
%ADD16RoundRect,0.200000X-0.200000X-0.275000X0.200000X-0.275000X0.200000X0.275000X-0.200000X0.275000X0*%
%TD*%
%TA.AperFunction,SMDPad,CuDef*%
%ADD17RoundRect,0.150000X-0.512500X-0.150000X0.512500X-0.150000X0.512500X0.150000X-0.512500X0.150000X0*%
%TD*%
%TA.AperFunction,ViaPad*%
%ADD18C,0.600000*%
%TD*%
%TA.AperFunction,Conductor*%
%ADD19C,0.300000*%
%TD*%
%TA.AperFunction,Conductor*%
%ADD20C,0.500000*%
%TD*%
%TA.AperFunction,Conductor*%
%ADD21C,0.200000*%
%TD*%
G04 APERTURE END LIST*
D10*
%TO.P,Rt4,1*%
%TO.N,NTC2*%
X127625000Y-68040000D03*
%TO.P,Rt4,2*%
%TO.N,Net-(Rt4-Pad2)*%
X125975000Y-68040000D03*
%TD*%
D11*
%TO.P,C2,1*%
%TO.N,+5V*%
X124190000Y-66190000D03*
%TO.P,C2,2*%
%TO.N,SOLAR_1s_GND*%
X122640000Y-66190000D03*
%TD*%
D12*
%TO.P,R9,1*%
%TO.N,Net-(Q2B-S)*%
X150474999Y-82350000D03*
D13*
%TO.P,R9,2*%
%TO.N,SOLAR_1s_GND*%
X150474999Y-79810000D03*
%TD*%
D12*
%TO.P,J3,1,Pin_1_1*%
%TO.N,SOLAR_3s1*%
X131850000Y-142300000D03*
D13*
%TO.P,J3,2,Pin_2_2*%
%TO.N,SOLAR_1s_GND*%
X134390000Y-142300000D03*
%TO.P,J3,3,Pin_3_3*%
%TO.N,SOLAR_3s2*%
X136930000Y-142300000D03*
%TO.P,J3,4,Pin_4_4*%
%TO.N,SOLAR_1s_GND*%
X139470000Y-142300000D03*
%TO.P,J3,5,Pin_5_5*%
%TO.N,SOLAR_3s3*%
X142010000Y-142300000D03*
%TO.P,J3,6,Pin_6_6*%
%TO.N,SOLAR_1s_GND*%
X144550000Y-142300000D03*
%TO.P,J3,7,Pin_7_7*%
%TO.N,SOLAR_2s*%
X147090000Y-142300000D03*
%TO.P,J3,8,Pin_8_8*%
%TO.N,SOLAR_1s*%
X149630000Y-142300000D03*
%TO.P,J3,9,Pin_9_9*%
X152170000Y-142300000D03*
%TO.P,J3,10,Pin_10_10*%
%TO.N,SOLAR_1s_GND*%
X154710000Y-142300000D03*
%TD*%
D14*
%TO.P,D2,1,K_1*%
%TO.N,SOLAR*%
X141385000Y-133000000D03*
%TO.P,D2,2,A_2*%
%TO.N,SOLAR_3s3*%
X141385000Y-137400000D03*
%TD*%
D12*
%TO.P,J2,1,Pin_1_1*%
%TO.N,HEATER_ON_1*%
X170550000Y-48710000D03*
D13*
%TO.P,J2,2,Pin_2_2*%
%TO.N,HEATER_ON_2*%
X170550000Y-51250000D03*
%TO.P,J2,3,Pin_3_3*%
%TO.N,NTC1*%
X170550000Y-53790000D03*
%TO.P,J2,4,Pin_4_4*%
%TO.N,NTC2*%
X170550000Y-56330000D03*
%TO.P,J2,5,Pin_5_5*%
%TO.N,NTC3*%
X170550000Y-58870000D03*
%TO.P,J2,6,Pin_6_6*%
%TO.N,NTC4*%
X170550000Y-61410000D03*
%TD*%
D12*
%TO.P,J1,1,Pin_1_1*%
%TO.N,BATT2+*%
X120545000Y-48750000D03*
D13*
%TO.P,J1,2,Pin_2_2*%
%TO.N,BATT2M*%
X123085000Y-48750000D03*
%TO.P,J1,3,Pin_3_3*%
%TO.N,BATT2-*%
X125625000Y-48750000D03*
%TO.P,J1,4,Pin_4_4*%
%TO.N,NTC2*%
X128165000Y-48750000D03*
%TO.P,J1,5,Pin_5_5*%
%TO.N,BATT1+*%
X130705000Y-48750000D03*
%TO.P,J1,6,Pin_6_6*%
%TO.N,BATT1M*%
X133245000Y-48750000D03*
%TO.P,J1,7,Pin_7_7*%
%TO.N,BATT1-*%
X135785000Y-48750000D03*
%TO.P,J1,8,Pin_8_8*%
%TO.N,NTC1*%
X138325000Y-48750000D03*
%TO.P,J1,9,Pin_9_9*%
%TO.N,SOLAR*%
X140865000Y-48750000D03*
%TO.P,J1,10,Pin_10_10*%
%TO.N,SOLAR_1s_GND*%
X143405000Y-48750000D03*
%TO.P,J1,11,Pin_11_11*%
%TO.N,CHG_OUT*%
X145945000Y-48750000D03*
%TO.P,J1,12,Pin_12_12*%
%TO.N,BATT3+*%
X148485000Y-48750000D03*
%TO.P,J1,13,Pin_13_13*%
%TO.N,BATT3M*%
X151025000Y-48750000D03*
%TO.P,J1,14,Pin_14_14*%
%TO.N,BATT3-*%
X153565000Y-48750000D03*
%TO.P,J1,15,Pin_15_15*%
%TO.N,NTC3*%
X156105000Y-48750000D03*
%TO.P,J1,16,Pin_16_16*%
%TO.N,BATT4+*%
X158645000Y-48750000D03*
%TO.P,J1,17,Pin_17_17*%
%TO.N,BATT4M*%
X161185000Y-48750000D03*
%TO.P,J1,18,Pin_18_18*%
%TO.N,BATT4-*%
X163725000Y-48750000D03*
%TO.P,J1,19,Pin_19_19*%
%TO.N,NTC4*%
X166265000Y-48750000D03*
%TD*%
D14*
%TO.P,D3,1,K_1*%
%TO.N,SOLAR*%
X137335000Y-133000000D03*
%TO.P,D3,2,A_2*%
%TO.N,SOLAR_3s2*%
X137335000Y-137400000D03*
%TD*%
D15*
%TO.P,R10,1*%
%TO.N,Net-(Q2B-S)*%
X147714999Y-81855000D03*
%TO.P,R10,2*%
%TO.N,SOLAR_1s_GND*%
X147714999Y-80205000D03*
%TD*%
D12*
%TO.P,TH2,1*%
%TO.N,Net-(Rt4-Pad2)*%
X123150000Y-69050000D03*
D13*
%TO.P,TH2,2*%
%TO.N,SOLAR_1s_GND*%
X120610000Y-69050000D03*
%TD*%
D16*
%TO.P,Rt1,1*%
%TO.N,+5V*%
X126830000Y-56640000D03*
%TO.P,Rt1,2*%
%TO.N,NTC1*%
X128480000Y-56640000D03*
%TD*%
D12*
%TO.P,R8,1*%
%TO.N,Net-(Q2B-S)*%
X154534999Y-82350000D03*
D13*
%TO.P,R8,2*%
%TO.N,SOLAR_1s_GND*%
X154534999Y-79810000D03*
%TD*%
D12*
%TO.P,J8,1,Pin_1_1*%
%TO.N,BATT3-*%
X110000000Y-110000000D03*
D13*
%TO.P,J8,2,Pin_2_2*%
%TO.N,BATT3+*%
X110000000Y-112540000D03*
%TD*%
D12*
%TO.P,R5,1*%
%TO.N,Net-(Q1B-S)*%
X122800000Y-82512500D03*
D13*
%TO.P,R5,2*%
%TO.N,SOLAR_1s_GND*%
X122800000Y-79972500D03*
%TD*%
D12*
%TO.P,J7,1,Pin_1_1*%
%TO.N,BATT2M*%
X176000000Y-96000000D03*
D13*
%TO.P,J7,2,Pin_2_2*%
X176000000Y-98540000D03*
%TD*%
D16*
%TO.P,Rt5,1*%
%TO.N,+5V*%
X157830000Y-56590000D03*
%TO.P,Rt5,2*%
%TO.N,NTC3*%
X159480000Y-56590000D03*
%TD*%
D10*
%TO.P,R6,1*%
%TO.N,HEATER_ON_2*%
X158864999Y-79800000D03*
%TO.P,R6,2*%
%TO.N,SOLAR_1s_GND*%
X157214999Y-79800000D03*
%TD*%
D14*
%TO.P,D1,1,K_1*%
%TO.N,SOLAR*%
X145435000Y-133000000D03*
%TO.P,D1,2,A_2*%
%TO.N,SOLAR_2s*%
X145435000Y-137400000D03*
%TD*%
D15*
%TO.P,R4,1*%
%TO.N,Net-(Q1B-S)*%
X116200000Y-82357500D03*
%TO.P,R4,2*%
%TO.N,SOLAR_1s_GND*%
X116200000Y-80707500D03*
%TD*%
D17*
%TO.P,Q1,1,G_1*%
%TO.N,HEATER_ON_1*%
X125932500Y-81600000D03*
%TO.P,Q1,2,S_2*%
%TO.N,Net-(Q1B-S)*%
X125932500Y-82550000D03*
%TO.P,Q1,3,G_3*%
%TO.N,Net-(Q1A-D)*%
X125932500Y-83500000D03*
%TO.P,Q1,4,D_4*%
%TO.N,CHG_OUT*%
X128207500Y-83500000D03*
%TO.P,Q1,5,S_5*%
%TO.N,SOLAR_1s_GND*%
X128207500Y-82550000D03*
%TO.P,Q1,6,D_6*%
%TO.N,Net-(Q1A-D)*%
X128207500Y-81600000D03*
%TD*%
D12*
%TO.P,J12,1,Pin_1_1*%
%TO.N,SOLAR_1s_GND*%
X116300000Y-48750000D03*
D13*
%TO.P,J12,2,Pin_2_2*%
%TO.N,+5V*%
X116300000Y-51290000D03*
%TD*%
D12*
%TO.P,R3,1*%
%TO.N,Net-(Q1B-S)*%
X118950000Y-82502500D03*
D13*
%TO.P,R3,2*%
%TO.N,SOLAR_1s_GND*%
X118950000Y-79962500D03*
%TD*%
D11*
%TO.P,C3,1*%
%TO.N,+5V*%
X155865000Y-56560000D03*
%TO.P,C3,2*%
%TO.N,SOLAR_1s_GND*%
X154315000Y-56560000D03*
%TD*%
D12*
%TO.P,TH1,1*%
%TO.N,Net-(Rt2-Pad2)*%
X124250000Y-59350000D03*
D13*
%TO.P,TH1,2*%
%TO.N,SOLAR_1s_GND*%
X121710000Y-59350000D03*
%TD*%
D16*
%TO.P,Rt7,1*%
%TO.N,+5V*%
X157035000Y-66340000D03*
%TO.P,Rt7,2*%
%TO.N,NTC4*%
X158685000Y-66340000D03*
%TD*%
D11*
%TO.P,C1,1*%
%TO.N,+5V*%
X125310000Y-56640000D03*
%TO.P,C1,2*%
%TO.N,SOLAR_1s_GND*%
X123760000Y-56640000D03*
%TD*%
D10*
%TO.P,Rt8,1*%
%TO.N,NTC4*%
X158700000Y-68030000D03*
%TO.P,Rt8,2*%
%TO.N,Net-(Rt8-Pad2)*%
X157050000Y-68030000D03*
%TD*%
D12*
%TO.P,TH3,1*%
%TO.N,Net-(Rt6-Pad2)*%
X154780000Y-59460000D03*
D13*
%TO.P,TH3,2*%
%TO.N,SOLAR_1s_GND*%
X152240000Y-59460000D03*
%TD*%
D12*
%TO.P,J4,1,Pin_1_1*%
%TO.N,BATT1-*%
X110000000Y-78000000D03*
D13*
%TO.P,J4,2,Pin_2_2*%
%TO.N,BATT1+*%
X110000000Y-80540000D03*
%TD*%
D12*
%TO.P,J9,1,Pin_1_1*%
%TO.N,BATT3M*%
X176000000Y-110000000D03*
D13*
%TO.P,J9,2,Pin_2_2*%
X176000000Y-112540000D03*
%TD*%
D14*
%TO.P,D4,1,K_1*%
%TO.N,SOLAR*%
X133285000Y-133000000D03*
%TO.P,D4,2,A_2*%
%TO.N,SOLAR_3s1*%
X133285000Y-137400000D03*
%TD*%
D12*
%TO.P,J6,1,Pin_1_1*%
%TO.N,BATT2-*%
X110000000Y-97000000D03*
D13*
%TO.P,J6,2,Pin_2_2*%
%TO.N,BATT2+*%
X110000000Y-99540000D03*
%TD*%
D11*
%TO.P,C4,1*%
%TO.N,+5V*%
X155410000Y-66320000D03*
%TO.P,C4,2*%
%TO.N,SOLAR_1s_GND*%
X153860000Y-66320000D03*
%TD*%
D10*
%TO.P,R1,1*%
%TO.N,HEATER_ON_1*%
X127225000Y-79902500D03*
%TO.P,R1,2*%
%TO.N,SOLAR_1s_GND*%
X125575000Y-79902500D03*
%TD*%
D15*
%TO.P,R7,1*%
%TO.N,CHG_OUT*%
X162439999Y-83195000D03*
%TO.P,R7,2*%
%TO.N,Net-(Q2A-D)*%
X162439999Y-81545000D03*
%TD*%
D17*
%TO.P,Q2,1,G_1*%
%TO.N,HEATER_ON_2*%
X157974999Y-81430000D03*
%TO.P,Q2,2,S_2*%
%TO.N,Net-(Q2B-S)*%
X157974999Y-82380000D03*
%TO.P,Q2,3,G_3*%
%TO.N,Net-(Q2A-D)*%
X157974999Y-83330000D03*
%TO.P,Q2,4,D_4*%
%TO.N,CHG_OUT*%
X160249999Y-83330000D03*
%TO.P,Q2,5,S_5*%
%TO.N,SOLAR_1s_GND*%
X160249999Y-82380000D03*
%TO.P,Q2,6,D_6*%
%TO.N,Net-(Q2A-D)*%
X160249999Y-81430000D03*
%TD*%
D12*
%TO.P,TH4,1*%
%TO.N,Net-(Rt8-Pad2)*%
X154380000Y-69050000D03*
D13*
%TO.P,TH4,2*%
%TO.N,SOLAR_1s_GND*%
X151840000Y-69050000D03*
%TD*%
D16*
%TO.P,Rt3,1*%
%TO.N,+5V*%
X125975000Y-66200000D03*
%TO.P,Rt3,2*%
%TO.N,NTC2*%
X127625000Y-66200000D03*
%TD*%
D12*
%TO.P,J5,1,Pin_1_1*%
%TO.N,BATT1M*%
X176000000Y-78000000D03*
D13*
%TO.P,J5,2,Pin_2_2*%
X176000000Y-80540000D03*
%TD*%
D12*
%TO.P,J11,1,Pin_1_1*%
%TO.N,BATT4M*%
X176000000Y-123000000D03*
D13*
%TO.P,J11,2,Pin_2_2*%
X176000000Y-125540000D03*
%TD*%
D10*
%TO.P,Rt6,1*%
%TO.N,NTC3*%
X159480000Y-58500000D03*
%TO.P,Rt6,2*%
%TO.N,Net-(Rt6-Pad2)*%
X157830000Y-58500000D03*
%TD*%
D12*
%TO.P,J10,1,Pin_1_1*%
%TO.N,BATT4-*%
X110000000Y-123000000D03*
D13*
%TO.P,J10,2,Pin_2_2*%
%TO.N,BATT4+*%
X110000000Y-125540000D03*
%TD*%
D10*
%TO.P,Rt2,1*%
%TO.N,NTC1*%
X128480000Y-58215000D03*
%TO.P,Rt2,2*%
%TO.N,Net-(Rt2-Pad2)*%
X126830000Y-58215000D03*
%TD*%
D15*
%TO.P,R2,1*%
%TO.N,CHG_OUT*%
X130270000Y-83287500D03*
%TO.P,R2,2*%
%TO.N,Net-(Q1A-D)*%
X130270000Y-81637500D03*
%TD*%
D18*
%TO.N,NTC2*%
X172600000Y-63350000D03*
X127600000Y-64250000D03*
%TO.N,BATT4M*%
X160700000Y-122600000D03*
%TO.N,+5V*%
X125300000Y-55250000D03*
X124190000Y-64850000D03*
X155865000Y-55185000D03*
X155400000Y-64950000D03*
%TO.N,SOLAR_1s_GND*%
X138200000Y-56560000D03*
X125575000Y-78875000D03*
X131200000Y-82450000D03*
X138160000Y-79950000D03*
X163900000Y-78950000D03*
X113950000Y-66190000D03*
X113950000Y-80707500D03*
X138160000Y-66450000D03*
X113950000Y-56640000D03*
X164000000Y-82250000D03*
%TO.N,SOLAR*%
X136900000Y-131250000D03*
%TO.N,HEATER_ON_1*%
X165900000Y-76950000D03*
%TO.N,HEATER_ON_2*%
X167300000Y-79800000D03*
%TO.N,NTC1*%
X136000000Y-56650000D03*
X168400000Y-61500000D03*
%TO.N,NTC3*%
X156100000Y-53200000D03*
%TO.N,NTC4*%
X164450000Y-66350000D03*
X170550000Y-66350000D03*
%TO.N,BATT2+*%
X114335000Y-102040000D03*
%TO.N,BATT2M*%
X116600000Y-95650000D03*
%TO.N,BATT2-*%
X117775000Y-99500000D03*
%TO.N,BATT1+*%
X132800000Y-92050000D03*
%TO.N,BATT1M*%
X134100000Y-92860000D03*
%TO.N,BATT1-*%
X135100000Y-89450000D03*
%TO.N,CHG_OUT*%
X140700000Y-83250000D03*
%TO.N,BATT3+*%
X142900000Y-109375000D03*
X109340000Y-109375000D03*
%TO.N,BATT3M*%
X145800000Y-105450000D03*
%TO.N,BATT3-*%
X147800000Y-108275000D03*
%TO.N,BATT4+*%
X158450000Y-121000000D03*
%TO.N,BATT4-*%
X162600000Y-118500000D03*
%TD*%
%TO.N,NTC2*%
D19*
X127600000Y-64250000D02*
X127600000Y-66175000D01*
X127625000Y-66200000D02*
X127625000Y-68040000D01*
X172600000Y-63350000D02*
X132315000Y-63350000D01*
X132315000Y-63350000D02*
X127625000Y-68040000D01*
X127600000Y-66175000D02*
X127625000Y-66200000D01*
%TO.N,Net-(Rt4-Pad2)*%
X123150000Y-69050000D02*
X124965000Y-69050000D01*
X124965000Y-69050000D02*
X125975000Y-68040000D01*
%TO.N,BATT4M*%
D20*
X161100000Y-123000000D02*
X176000000Y-123000000D01*
X160700000Y-122600000D02*
X161100000Y-123000000D01*
X176000000Y-123000000D02*
X176000000Y-125540000D01*
%TO.N,+5V*%
D19*
X155865000Y-56560000D02*
X155865000Y-55185000D01*
X124190000Y-66190000D02*
X124190000Y-64850000D01*
X125310000Y-56640000D02*
X124485000Y-55815000D01*
X127735000Y-55735000D02*
X155040000Y-55735000D01*
X155865000Y-56560000D02*
X157800000Y-56560000D01*
X124190000Y-64850000D02*
X124190000Y-64760000D01*
X157015000Y-66320000D02*
X157035000Y-66340000D01*
X125310000Y-55260000D02*
X125300000Y-55250000D01*
X155410000Y-66320000D02*
X155410000Y-64960000D01*
X155865000Y-55185000D02*
X155900000Y-55150000D01*
X120825000Y-55815000D02*
X116275000Y-51265000D01*
X125310000Y-56640000D02*
X125310000Y-55260000D01*
X155410000Y-66320000D02*
X157015000Y-66320000D01*
X124485000Y-55815000D02*
X120825000Y-55815000D01*
X157800000Y-56560000D02*
X157830000Y-56590000D01*
X155410000Y-64960000D02*
X155400000Y-64950000D01*
X126830000Y-56640000D02*
X127735000Y-55735000D01*
X125310000Y-56640000D02*
X126830000Y-56640000D01*
X125965000Y-66190000D02*
X125975000Y-66200000D01*
X155040000Y-55735000D02*
X155865000Y-56560000D01*
X124190000Y-66190000D02*
X125965000Y-66190000D01*
X124190000Y-64760000D02*
X124200000Y-64750000D01*
%TO.N,SOLAR_1s_GND*%
X113950000Y-66190000D02*
X122640000Y-66190000D01*
X153860000Y-66320000D02*
X153860000Y-67030000D01*
X122800000Y-79972500D02*
X116935000Y-79972500D01*
X154139999Y-80205000D02*
X154534999Y-79810000D01*
X138290000Y-66320000D02*
X138160000Y-66450000D01*
D20*
X153410000Y-143600000D02*
X154710000Y-142300000D01*
X139505000Y-44850000D02*
X119650000Y-44850000D01*
D19*
X138415000Y-80205000D02*
X138160000Y-79950000D01*
D20*
X144550000Y-142300000D02*
X145850000Y-143600000D01*
D19*
X163870000Y-82380000D02*
X164000000Y-82250000D01*
D20*
X140770000Y-143600000D02*
X143250000Y-143600000D01*
D19*
X125505000Y-79972500D02*
X125575000Y-79902500D01*
X153860000Y-66320000D02*
X138290000Y-66320000D01*
X125575000Y-79902500D02*
X125575000Y-78875000D01*
X122800000Y-79972500D02*
X125505000Y-79972500D01*
X128207500Y-82550000D02*
X128307500Y-82450000D01*
X138110000Y-56560000D02*
X138100000Y-56550000D01*
D20*
X135690000Y-143600000D02*
X138170000Y-143600000D01*
X138170000Y-143600000D02*
X139470000Y-142300000D01*
D19*
X120610000Y-69050000D02*
X122640000Y-67020000D01*
X154315000Y-57385000D02*
X154315000Y-56560000D01*
X160249999Y-82380000D02*
X163870000Y-82380000D01*
X153860000Y-67030000D02*
X151840000Y-69050000D01*
D20*
X119650000Y-44850000D02*
X116300000Y-48200000D01*
X139470000Y-142300000D02*
X140770000Y-143600000D01*
D19*
X128307500Y-82450000D02*
X131200000Y-82450000D01*
X121710000Y-59350000D02*
X123760000Y-57300000D01*
D20*
X143405000Y-48750000D02*
X139505000Y-44850000D01*
D19*
X113950000Y-56640000D02*
X123760000Y-56640000D01*
X157214999Y-79800000D02*
X158064999Y-78950000D01*
X122640000Y-67020000D02*
X122640000Y-66190000D01*
X116935000Y-79972500D02*
X116200000Y-80707500D01*
X123760000Y-57300000D02*
X123760000Y-56640000D01*
X138200000Y-56560000D02*
X138110000Y-56560000D01*
X156809999Y-80205000D02*
X157214999Y-79800000D01*
X152240000Y-59460000D02*
X154315000Y-57385000D01*
D20*
X145850000Y-143600000D02*
X153410000Y-143600000D01*
D19*
X154315000Y-56560000D02*
X138200000Y-56560000D01*
D20*
X143250000Y-143600000D02*
X144550000Y-142300000D01*
D19*
X147714999Y-80205000D02*
X138415000Y-80205000D01*
X158064999Y-78950000D02*
X163900000Y-78950000D01*
D20*
X134390000Y-142300000D02*
X135690000Y-143600000D01*
D19*
X113950000Y-80707500D02*
X116200000Y-80707500D01*
D20*
X116300000Y-48200000D02*
X116300000Y-48750000D01*
D19*
X147714999Y-80205000D02*
X156809999Y-80205000D01*
%TO.N,Net-(Q2B-S)*%
X148239999Y-82380000D02*
X157974999Y-82380000D01*
X147714999Y-81855000D02*
X148239999Y-82380000D01*
%TO.N,SOLAR_3s1*%
D20*
X131850000Y-138835000D02*
X133285000Y-137400000D01*
X131850000Y-142300000D02*
X131850000Y-138835000D01*
%TO.N,SOLAR_3s2*%
X136930000Y-137805000D02*
X137335000Y-137400000D01*
X136930000Y-142300000D02*
X136930000Y-137805000D01*
%TO.N,SOLAR_3s3*%
X142010000Y-142300000D02*
X142010000Y-138025000D01*
X142010000Y-138025000D02*
X141385000Y-137400000D01*
%TO.N,SOLAR_2s*%
X145435000Y-140645000D02*
X145435000Y-137400000D01*
X147090000Y-142300000D02*
X145435000Y-140645000D01*
%TO.N,SOLAR_1s*%
X149630000Y-142300000D02*
X152170000Y-142300000D01*
%TO.N,SOLAR*%
X133285000Y-133000000D02*
X145435000Y-133000000D01*
X136900000Y-132565000D02*
X137335000Y-133000000D01*
X136900000Y-131250000D02*
X136900000Y-132565000D01*
%TO.N,HEATER_ON_1*%
D19*
X128250000Y-79950000D02*
X127272500Y-79950000D01*
X165900000Y-76950000D02*
X130900000Y-76950000D01*
X127225000Y-79902500D02*
X127225000Y-80307500D01*
X128250000Y-79600000D02*
X128250000Y-79950000D01*
X127272500Y-79950000D02*
X127225000Y-79902500D01*
X130900000Y-76950000D02*
X128250000Y-79600000D01*
X127225000Y-80307500D02*
X125932500Y-81600000D01*
%TO.N,HEATER_ON_2*%
X157974999Y-80690000D02*
X158864999Y-79800000D01*
X157974999Y-81430000D02*
X157974999Y-80690000D01*
X167300000Y-79800000D02*
X158864999Y-79800000D01*
%TO.N,NTC1*%
X128480000Y-56640000D02*
X128480000Y-58215000D01*
X168400000Y-61550000D02*
X168400000Y-61500000D01*
X136000000Y-56650000D02*
X135990000Y-56640000D01*
X131815000Y-61550000D02*
X128480000Y-58215000D01*
X168400000Y-61550000D02*
X131815000Y-61550000D01*
X135990000Y-56640000D02*
X128480000Y-56640000D01*
%TO.N,NTC3*%
X159480000Y-58500000D02*
X159850000Y-58870000D01*
X159480000Y-56590000D02*
X159480000Y-58500000D01*
X159850000Y-58870000D02*
X170550000Y-58870000D01*
X159480000Y-56590000D02*
X159480000Y-56580000D01*
X159480000Y-56580000D02*
X156100000Y-53200000D01*
%TO.N,NTC4*%
X158695000Y-66350000D02*
X158685000Y-66340000D01*
X164450000Y-66350000D02*
X158695000Y-66350000D01*
X164450000Y-66350000D02*
X170550000Y-66350000D01*
X158685000Y-66340000D02*
X158685000Y-68015000D01*
X158685000Y-68015000D02*
X158700000Y-68030000D01*
%TO.N,BATT2+*%
D20*
X107850000Y-102040000D02*
X114335000Y-102040000D01*
%TO.N,BATT2M*%
X116600000Y-95650000D02*
X116950000Y-96000000D01*
X176000000Y-97450000D02*
X176000000Y-98540000D01*
X176000000Y-97450000D02*
X176000000Y-96000000D01*
X116950000Y-96000000D02*
X176000000Y-96000000D01*
%TO.N,BATT2-*%
X107850000Y-99500000D02*
X117775000Y-99500000D01*
%TO.N,BATT1+*%
X110000000Y-81450000D02*
X110000000Y-80540000D01*
X120550000Y-92000000D02*
X110000000Y-81450000D01*
X132800000Y-92050000D02*
X132750000Y-92000000D01*
X132750000Y-92000000D02*
X120550000Y-92000000D01*
%TO.N,BATT1M*%
X163680000Y-92860000D02*
X176000000Y-80540000D01*
X176000000Y-80540000D02*
X176000000Y-78000000D01*
X160900000Y-92860000D02*
X134100000Y-92860000D01*
X160900000Y-92860000D02*
X163680000Y-92860000D01*
%TO.N,BATT1-*%
X135090000Y-89460000D02*
X120010000Y-89460000D01*
X135100000Y-89450000D02*
X135090000Y-89460000D01*
X112300000Y-79600000D02*
X110700000Y-78000000D01*
X110700000Y-78000000D02*
X110000000Y-78000000D01*
X120010000Y-89460000D02*
X112300000Y-81750000D01*
X112300000Y-81750000D02*
X112300000Y-79600000D01*
%TO.N,CHG_OUT*%
D19*
X128207500Y-83500000D02*
X130057500Y-83500000D01*
D21*
X130057500Y-83500000D02*
X130270000Y-83287500D01*
D20*
X140662500Y-83287500D02*
X130270000Y-83287500D01*
D19*
X162304999Y-83330000D02*
X162439999Y-83195000D01*
X160249999Y-83330000D02*
X162304999Y-83330000D01*
D20*
X140700000Y-83250000D02*
X141900000Y-84450000D01*
D19*
X161184999Y-84450000D02*
X162439999Y-83195000D01*
D20*
X141900000Y-84450000D02*
X161184999Y-84450000D01*
D19*
X140700000Y-83250000D02*
X140662500Y-83287500D01*
%TO.N,BATT3+*%
D20*
X109340000Y-109375000D02*
X142900000Y-109375000D01*
%TO.N,BATT3M*%
X145800000Y-105450000D02*
X171450000Y-105450000D01*
X176000000Y-110000000D02*
X176000000Y-112540000D01*
X171450000Y-105450000D02*
X176000000Y-110000000D01*
%TO.N,BATT3-*%
X107900000Y-108275000D02*
X147800000Y-108275000D01*
X147800000Y-108275000D02*
X147900000Y-108275000D01*
%TO.N,BATT4+*%
X158400000Y-121050000D02*
X107850000Y-121050000D01*
X158450000Y-121000000D02*
X158400000Y-121050000D01*
%TO.N,BATT4-*%
X162600000Y-118500000D02*
X162590000Y-118510000D01*
X162590000Y-118510000D02*
X107850000Y-118510000D01*
%TO.N,Net-(Q1B-S)*%
D19*
X125932500Y-82550000D02*
X122837500Y-82550000D01*
D21*
X116355000Y-82512500D02*
X116200000Y-82357500D01*
D19*
X122800000Y-82512500D02*
X116355000Y-82512500D01*
D21*
X122837500Y-82550000D02*
X122800000Y-82512500D01*
%TO.N,Net-(Q1A-D)*%
D19*
X126594999Y-83500000D02*
X125932500Y-83500000D01*
X127100000Y-82994999D02*
X127100000Y-82150000D01*
X127100000Y-82150000D02*
X127650000Y-81600000D01*
X126594999Y-83500000D02*
X127100000Y-82994999D01*
X127816948Y-81637500D02*
X130270000Y-81637500D01*
D21*
X128207500Y-81600000D02*
X127832500Y-81600000D01*
D19*
X127650000Y-81600000D02*
X128207500Y-81600000D01*
%TO.N,Net-(Rt2-Pad2)*%
X124250000Y-59350000D02*
X125695000Y-59350000D01*
X125695000Y-59350000D02*
X126830000Y-58215000D01*
%TO.N,Net-(Rt8-Pad2)*%
X156030000Y-69050000D02*
X157050000Y-68030000D01*
X154380000Y-69050000D02*
X156030000Y-69050000D01*
%TO.N,Net-(Rt6-Pad2)*%
X154780000Y-59460000D02*
X156870000Y-59460000D01*
X156870000Y-59460000D02*
X157830000Y-58500000D01*
%TO.N,Net-(Q2A-D)*%
X159237499Y-82729999D02*
X159237499Y-81780001D01*
X158637498Y-83330000D02*
X159237499Y-82729999D01*
X159237499Y-81780001D02*
X159472500Y-81545000D01*
X159472500Y-81545000D02*
X162439999Y-81545000D01*
X157974999Y-83330000D02*
X158637498Y-83330000D01*
%TD*%
M02*
