%TF.GenerationSoftware,KiCad,Pcbnew,10.0.1*%
%TF.CreationDate,2026-08-22T13:00:35-07:00*%
%TF.ProjectId,PVDX_BatteryBoard,50564458-5f42-4617-9474-657279426f61,rev?*%
%TF.SameCoordinates,Original*%
%TF.FileFunction,Soldermask,Bot*%
%TF.FilePolarity,Negative*%
%FSLAX46Y46*%
G04 Gerber Fmt 4.6, Leading zero omitted, Abs format (unit mm)*
G04 Created by KiCad (PCBNEW 10.0.1) date 2026-08-22 13:00:35*
%MOMM*%
%LPD*%
G01*
G04 APERTURE LIST*
%ADD10R,1.700000X1.700000*%
%ADD11C,1.700000*%
G04 APERTURE END LIST*
D10*
%TO.C,R9*%
X150474999Y-82350000D03*
D11*
X150474999Y-79810000D03*
%TD*%
D10*
%TO.C,J3*%
X131850000Y-142300000D03*
D11*
X134390000Y-142300000D03*
X136930000Y-142300000D03*
X139470000Y-142300000D03*
X142010000Y-142300000D03*
X144550000Y-142300000D03*
X147090000Y-142300000D03*
X149630000Y-142300000D03*
X152170000Y-142300000D03*
X154710000Y-142300000D03*
%TD*%
D10*
%TO.C,J2*%
X170550000Y-48710000D03*
D11*
X170550000Y-51250000D03*
X170550000Y-53790000D03*
X170550000Y-56330000D03*
X170550000Y-58870000D03*
X170550000Y-61410000D03*
%TD*%
D10*
%TO.C,J1*%
X120545000Y-48750000D03*
D11*
X123085000Y-48750000D03*
X125625000Y-48750000D03*
X128165000Y-48750000D03*
X130705000Y-48750000D03*
X133245000Y-48750000D03*
X135785000Y-48750000D03*
X138325000Y-48750000D03*
X140865000Y-48750000D03*
X143405000Y-48750000D03*
X145945000Y-48750000D03*
X148485000Y-48750000D03*
X151025000Y-48750000D03*
X153565000Y-48750000D03*
X156105000Y-48750000D03*
X158645000Y-48750000D03*
X161185000Y-48750000D03*
X163725000Y-48750000D03*
X166265000Y-48750000D03*
%TD*%
D10*
%TO.C,TH2*%
X123150000Y-69050000D03*
D11*
X120610000Y-69050000D03*
%TD*%
D10*
%TO.C,R8*%
X154534999Y-82350000D03*
D11*
X154534999Y-79810000D03*
%TD*%
D10*
%TO.C,J8*%
X110000000Y-110000000D03*
D11*
X110000000Y-112540000D03*
%TD*%
D10*
%TO.C,R5*%
X122800000Y-82512500D03*
D11*
X122800000Y-79972500D03*
%TD*%
D10*
%TO.C,J7*%
X176000000Y-96000000D03*
D11*
X176000000Y-98540000D03*
%TD*%
D10*
%TO.C,J12*%
X116300000Y-48750000D03*
D11*
X116300000Y-51290000D03*
%TD*%
D10*
%TO.C,R3*%
X118950000Y-82502500D03*
D11*
X118950000Y-79962500D03*
%TD*%
D10*
%TO.C,TH1*%
X124250000Y-59350000D03*
D11*
X121710000Y-59350000D03*
%TD*%
D10*
%TO.C,TH3*%
X154780000Y-59460000D03*
D11*
X152240000Y-59460000D03*
%TD*%
D10*
%TO.C,J4*%
X110000000Y-78000000D03*
D11*
X110000000Y-80540000D03*
%TD*%
D10*
%TO.C,J9*%
X176000000Y-110000000D03*
D11*
X176000000Y-112540000D03*
%TD*%
D10*
%TO.C,J6*%
X110000000Y-97000000D03*
D11*
X110000000Y-99540000D03*
%TD*%
D10*
%TO.C,TH4*%
X154380000Y-69050000D03*
D11*
X151840000Y-69050000D03*
%TD*%
D10*
%TO.C,J5*%
X176000000Y-78000000D03*
D11*
X176000000Y-80540000D03*
%TD*%
D10*
%TO.C,J11*%
X176000000Y-123000000D03*
D11*
X176000000Y-125540000D03*
%TD*%
D10*
%TO.C,J10*%
X110000000Y-123000000D03*
D11*
X110000000Y-125540000D03*
%TD*%
M02*
