%TF.GenerationSoftware,KiCad,Pcbnew,10.0.1*%
%TF.CreationDate,2026-08-22T13:00:35-07:00*%
%TF.ProjectId,PVDX_BatteryBoard,50564458-5f42-4617-9474-657279426f61,rev?*%
%TF.SameCoordinates,Original*%
%TF.FileFunction,Legend,Top*%
%TF.FilePolarity,Positive*%
%FSLAX46Y46*%
G04 Gerber Fmt 4.6, Leading zero omitted, Abs format (unit mm)*
G04 Created by KiCad (PCBNEW 10.0.1) date 2026-08-22 13:00:35*
%MOMM*%
%LPD*%
G01*
G04 APERTURE LIST*
%ADD10C,0.150000*%
%ADD11C,0.120000*%
G04 APERTURE END LIST*
D10*
X126347618Y-66594819D02*
X126014285Y-66118628D01*
X125776190Y-66594819D02*
X125776190Y-65594819D01*
X125776190Y-65594819D02*
X126157142Y-65594819D01*
X126157142Y-65594819D02*
X126252380Y-65642438D01*
X126252380Y-65642438D02*
X126299999Y-65690057D01*
X126299999Y-65690057D02*
X126347618Y-65785295D01*
X126347618Y-65785295D02*
X126347618Y-65928152D01*
X126347618Y-65928152D02*
X126299999Y-66023390D01*
X126299999Y-66023390D02*
X126252380Y-66071009D01*
X126252380Y-66071009D02*
X126157142Y-66118628D01*
X126157142Y-66118628D02*
X125776190Y-66118628D01*
X126633333Y-65928152D02*
X127014285Y-65928152D01*
X126776190Y-65594819D02*
X126776190Y-66451961D01*
X126776190Y-66451961D02*
X126823809Y-66547200D01*
X126823809Y-66547200D02*
X126919047Y-66594819D01*
X126919047Y-66594819D02*
X127014285Y-66594819D01*
X127776190Y-65928152D02*
X127776190Y-66594819D01*
X127538095Y-65547200D02*
X127300000Y-66261485D01*
X127300000Y-66261485D02*
X127919047Y-66261485D01*
X123248333Y-64989580D02*
X123200714Y-65037200D01*
X123200714Y-65037200D02*
X123057857Y-65084819D01*
X123057857Y-65084819D02*
X122962619Y-65084819D01*
X122962619Y-65084819D02*
X122819762Y-65037200D01*
X122819762Y-65037200D02*
X122724524Y-64941961D01*
X122724524Y-64941961D02*
X122676905Y-64846723D01*
X122676905Y-64846723D02*
X122629286Y-64656247D01*
X122629286Y-64656247D02*
X122629286Y-64513390D01*
X122629286Y-64513390D02*
X122676905Y-64322914D01*
X122676905Y-64322914D02*
X122724524Y-64227676D01*
X122724524Y-64227676D02*
X122819762Y-64132438D01*
X122819762Y-64132438D02*
X122962619Y-64084819D01*
X122962619Y-64084819D02*
X123057857Y-64084819D01*
X123057857Y-64084819D02*
X123200714Y-64132438D01*
X123200714Y-64132438D02*
X123248333Y-64180057D01*
X123629286Y-64180057D02*
X123676905Y-64132438D01*
X123676905Y-64132438D02*
X123772143Y-64084819D01*
X123772143Y-64084819D02*
X124010238Y-64084819D01*
X124010238Y-64084819D02*
X124105476Y-64132438D01*
X124105476Y-64132438D02*
X124153095Y-64180057D01*
X124153095Y-64180057D02*
X124200714Y-64275295D01*
X124200714Y-64275295D02*
X124200714Y-64370533D01*
X124200714Y-64370533D02*
X124153095Y-64513390D01*
X124153095Y-64513390D02*
X123581667Y-65084819D01*
X123581667Y-65084819D02*
X124200714Y-65084819D01*
X150308332Y-85184819D02*
X149974999Y-84708628D01*
X149736904Y-85184819D02*
X149736904Y-84184819D01*
X149736904Y-84184819D02*
X150117856Y-84184819D01*
X150117856Y-84184819D02*
X150213094Y-84232438D01*
X150213094Y-84232438D02*
X150260713Y-84280057D01*
X150260713Y-84280057D02*
X150308332Y-84375295D01*
X150308332Y-84375295D02*
X150308332Y-84518152D01*
X150308332Y-84518152D02*
X150260713Y-84613390D01*
X150260713Y-84613390D02*
X150213094Y-84661009D01*
X150213094Y-84661009D02*
X150117856Y-84708628D01*
X150117856Y-84708628D02*
X149736904Y-84708628D01*
X150784523Y-85184819D02*
X150974999Y-85184819D01*
X150974999Y-85184819D02*
X151070237Y-85137200D01*
X151070237Y-85137200D02*
X151117856Y-85089580D01*
X151117856Y-85089580D02*
X151213094Y-84946723D01*
X151213094Y-84946723D02*
X151260713Y-84756247D01*
X151260713Y-84756247D02*
X151260713Y-84375295D01*
X151260713Y-84375295D02*
X151213094Y-84280057D01*
X151213094Y-84280057D02*
X151165475Y-84232438D01*
X151165475Y-84232438D02*
X151070237Y-84184819D01*
X151070237Y-84184819D02*
X150879761Y-84184819D01*
X150879761Y-84184819D02*
X150784523Y-84232438D01*
X150784523Y-84232438D02*
X150736904Y-84280057D01*
X150736904Y-84280057D02*
X150689285Y-84375295D01*
X150689285Y-84375295D02*
X150689285Y-84613390D01*
X150689285Y-84613390D02*
X150736904Y-84708628D01*
X150736904Y-84708628D02*
X150784523Y-84756247D01*
X150784523Y-84756247D02*
X150879761Y-84803866D01*
X150879761Y-84803866D02*
X151070237Y-84803866D01*
X151070237Y-84803866D02*
X151165475Y-84756247D01*
X151165475Y-84756247D02*
X151213094Y-84708628D01*
X151213094Y-84708628D02*
X151260713Y-84613390D01*
X128534819Y-142633333D02*
X129249104Y-142633333D01*
X129249104Y-142633333D02*
X129391961Y-142680952D01*
X129391961Y-142680952D02*
X129487200Y-142776190D01*
X129487200Y-142776190D02*
X129534819Y-142919047D01*
X129534819Y-142919047D02*
X129534819Y-143014285D01*
X128534819Y-142252380D02*
X128534819Y-141633333D01*
X128534819Y-141633333D02*
X128915771Y-141966666D01*
X128915771Y-141966666D02*
X128915771Y-141823809D01*
X128915771Y-141823809D02*
X128963390Y-141728571D01*
X128963390Y-141728571D02*
X129011009Y-141680952D01*
X129011009Y-141680952D02*
X129106247Y-141633333D01*
X129106247Y-141633333D02*
X129344342Y-141633333D01*
X129344342Y-141633333D02*
X129439580Y-141680952D01*
X129439580Y-141680952D02*
X129487200Y-141728571D01*
X129487200Y-141728571D02*
X129534819Y-141823809D01*
X129534819Y-141823809D02*
X129534819Y-142109523D01*
X129534819Y-142109523D02*
X129487200Y-142204761D01*
X129487200Y-142204761D02*
X129439580Y-142252380D01*
X144089819Y-135938094D02*
X143089819Y-135938094D01*
X143089819Y-135938094D02*
X143089819Y-135699999D01*
X143089819Y-135699999D02*
X143137438Y-135557142D01*
X143137438Y-135557142D02*
X143232676Y-135461904D01*
X143232676Y-135461904D02*
X143327914Y-135414285D01*
X143327914Y-135414285D02*
X143518390Y-135366666D01*
X143518390Y-135366666D02*
X143661247Y-135366666D01*
X143661247Y-135366666D02*
X143851723Y-135414285D01*
X143851723Y-135414285D02*
X143946961Y-135461904D01*
X143946961Y-135461904D02*
X144042200Y-135557142D01*
X144042200Y-135557142D02*
X144089819Y-135699999D01*
X144089819Y-135699999D02*
X144089819Y-135938094D01*
X143185057Y-134985713D02*
X143137438Y-134938094D01*
X143137438Y-134938094D02*
X143089819Y-134842856D01*
X143089819Y-134842856D02*
X143089819Y-134604761D01*
X143089819Y-134604761D02*
X143137438Y-134509523D01*
X143137438Y-134509523D02*
X143185057Y-134461904D01*
X143185057Y-134461904D02*
X143280295Y-134414285D01*
X143280295Y-134414285D02*
X143375533Y-134414285D01*
X143375533Y-134414285D02*
X143518390Y-134461904D01*
X143518390Y-134461904D02*
X144089819Y-135033332D01*
X144089819Y-135033332D02*
X144089819Y-134414285D01*
X170216666Y-45394819D02*
X170216666Y-46109104D01*
X170216666Y-46109104D02*
X170169047Y-46251961D01*
X170169047Y-46251961D02*
X170073809Y-46347200D01*
X170073809Y-46347200D02*
X169930952Y-46394819D01*
X169930952Y-46394819D02*
X169835714Y-46394819D01*
X170645238Y-45490057D02*
X170692857Y-45442438D01*
X170692857Y-45442438D02*
X170788095Y-45394819D01*
X170788095Y-45394819D02*
X171026190Y-45394819D01*
X171026190Y-45394819D02*
X171121428Y-45442438D01*
X171121428Y-45442438D02*
X171169047Y-45490057D01*
X171169047Y-45490057D02*
X171216666Y-45585295D01*
X171216666Y-45585295D02*
X171216666Y-45680533D01*
X171216666Y-45680533D02*
X171169047Y-45823390D01*
X171169047Y-45823390D02*
X170597619Y-46394819D01*
X170597619Y-46394819D02*
X171216666Y-46394819D01*
X117619819Y-49083333D02*
X118334104Y-49083333D01*
X118334104Y-49083333D02*
X118476961Y-49130952D01*
X118476961Y-49130952D02*
X118572200Y-49226190D01*
X118572200Y-49226190D02*
X118619819Y-49369047D01*
X118619819Y-49369047D02*
X118619819Y-49464285D01*
X118619819Y-48083333D02*
X118619819Y-48654761D01*
X118619819Y-48369047D02*
X117619819Y-48369047D01*
X117619819Y-48369047D02*
X117762676Y-48464285D01*
X117762676Y-48464285D02*
X117857914Y-48559523D01*
X117857914Y-48559523D02*
X117905533Y-48654761D01*
X140039819Y-135938094D02*
X139039819Y-135938094D01*
X139039819Y-135938094D02*
X139039819Y-135699999D01*
X139039819Y-135699999D02*
X139087438Y-135557142D01*
X139087438Y-135557142D02*
X139182676Y-135461904D01*
X139182676Y-135461904D02*
X139277914Y-135414285D01*
X139277914Y-135414285D02*
X139468390Y-135366666D01*
X139468390Y-135366666D02*
X139611247Y-135366666D01*
X139611247Y-135366666D02*
X139801723Y-135414285D01*
X139801723Y-135414285D02*
X139896961Y-135461904D01*
X139896961Y-135461904D02*
X139992200Y-135557142D01*
X139992200Y-135557142D02*
X140039819Y-135699999D01*
X140039819Y-135699999D02*
X140039819Y-135938094D01*
X139039819Y-135033332D02*
X139039819Y-134414285D01*
X139039819Y-134414285D02*
X139420771Y-134747618D01*
X139420771Y-134747618D02*
X139420771Y-134604761D01*
X139420771Y-134604761D02*
X139468390Y-134509523D01*
X139468390Y-134509523D02*
X139516009Y-134461904D01*
X139516009Y-134461904D02*
X139611247Y-134414285D01*
X139611247Y-134414285D02*
X139849342Y-134414285D01*
X139849342Y-134414285D02*
X139944580Y-134461904D01*
X139944580Y-134461904D02*
X139992200Y-134509523D01*
X139992200Y-134509523D02*
X140039819Y-134604761D01*
X140039819Y-134604761D02*
X140039819Y-134890475D01*
X140039819Y-134890475D02*
X139992200Y-134985713D01*
X139992200Y-134985713D02*
X139944580Y-135033332D01*
X146739818Y-81672857D02*
X146263627Y-82006190D01*
X146739818Y-82244285D02*
X145739818Y-82244285D01*
X145739818Y-82244285D02*
X145739818Y-81863333D01*
X145739818Y-81863333D02*
X145787437Y-81768095D01*
X145787437Y-81768095D02*
X145835056Y-81720476D01*
X145835056Y-81720476D02*
X145930294Y-81672857D01*
X145930294Y-81672857D02*
X146073151Y-81672857D01*
X146073151Y-81672857D02*
X146168389Y-81720476D01*
X146168389Y-81720476D02*
X146216008Y-81768095D01*
X146216008Y-81768095D02*
X146263627Y-81863333D01*
X146263627Y-81863333D02*
X146263627Y-82244285D01*
X146739818Y-80720476D02*
X146739818Y-81291904D01*
X146739818Y-81006190D02*
X145739818Y-81006190D01*
X145739818Y-81006190D02*
X145882675Y-81101428D01*
X145882675Y-81101428D02*
X145977913Y-81196666D01*
X145977913Y-81196666D02*
X146025532Y-81291904D01*
X145739818Y-80101428D02*
X145739818Y-80006190D01*
X145739818Y-80006190D02*
X145787437Y-79910952D01*
X145787437Y-79910952D02*
X145835056Y-79863333D01*
X145835056Y-79863333D02*
X145930294Y-79815714D01*
X145930294Y-79815714D02*
X146120770Y-79768095D01*
X146120770Y-79768095D02*
X146358865Y-79768095D01*
X146358865Y-79768095D02*
X146549341Y-79815714D01*
X146549341Y-79815714D02*
X146644579Y-79863333D01*
X146644579Y-79863333D02*
X146692199Y-79910952D01*
X146692199Y-79910952D02*
X146739818Y-80006190D01*
X146739818Y-80006190D02*
X146739818Y-80101428D01*
X146739818Y-80101428D02*
X146692199Y-80196666D01*
X146692199Y-80196666D02*
X146644579Y-80244285D01*
X146644579Y-80244285D02*
X146549341Y-80291904D01*
X146549341Y-80291904D02*
X146358865Y-80339523D01*
X146358865Y-80339523D02*
X146120770Y-80339523D01*
X146120770Y-80339523D02*
X145930294Y-80291904D01*
X145930294Y-80291904D02*
X145835056Y-80244285D01*
X145835056Y-80244285D02*
X145787437Y-80196666D01*
X145787437Y-80196666D02*
X145739818Y-80101428D01*
X117534819Y-70335713D02*
X117534819Y-69764285D01*
X118534819Y-70049999D02*
X117534819Y-70049999D01*
X118534819Y-69430951D02*
X117534819Y-69430951D01*
X118011009Y-69430951D02*
X118011009Y-68859523D01*
X118534819Y-68859523D02*
X117534819Y-68859523D01*
X117630057Y-68430951D02*
X117582438Y-68383332D01*
X117582438Y-68383332D02*
X117534819Y-68288094D01*
X117534819Y-68288094D02*
X117534819Y-68049999D01*
X117534819Y-68049999D02*
X117582438Y-67954761D01*
X117582438Y-67954761D02*
X117630057Y-67907142D01*
X117630057Y-67907142D02*
X117725295Y-67859523D01*
X117725295Y-67859523D02*
X117820533Y-67859523D01*
X117820533Y-67859523D02*
X117963390Y-67907142D01*
X117963390Y-67907142D02*
X118534819Y-68478570D01*
X118534819Y-68478570D02*
X118534819Y-67859523D01*
X127202618Y-55664819D02*
X126869285Y-55188628D01*
X126631190Y-55664819D02*
X126631190Y-54664819D01*
X126631190Y-54664819D02*
X127012142Y-54664819D01*
X127012142Y-54664819D02*
X127107380Y-54712438D01*
X127107380Y-54712438D02*
X127154999Y-54760057D01*
X127154999Y-54760057D02*
X127202618Y-54855295D01*
X127202618Y-54855295D02*
X127202618Y-54998152D01*
X127202618Y-54998152D02*
X127154999Y-55093390D01*
X127154999Y-55093390D02*
X127107380Y-55141009D01*
X127107380Y-55141009D02*
X127012142Y-55188628D01*
X127012142Y-55188628D02*
X126631190Y-55188628D01*
X127488333Y-54998152D02*
X127869285Y-54998152D01*
X127631190Y-54664819D02*
X127631190Y-55521961D01*
X127631190Y-55521961D02*
X127678809Y-55617200D01*
X127678809Y-55617200D02*
X127774047Y-55664819D01*
X127774047Y-55664819D02*
X127869285Y-55664819D01*
X128726428Y-55664819D02*
X128155000Y-55664819D01*
X128440714Y-55664819D02*
X128440714Y-54664819D01*
X128440714Y-54664819D02*
X128345476Y-54807676D01*
X128345476Y-54807676D02*
X128250238Y-54902914D01*
X128250238Y-54902914D02*
X128155000Y-54950533D01*
X154368332Y-85184819D02*
X154034999Y-84708628D01*
X153796904Y-85184819D02*
X153796904Y-84184819D01*
X153796904Y-84184819D02*
X154177856Y-84184819D01*
X154177856Y-84184819D02*
X154273094Y-84232438D01*
X154273094Y-84232438D02*
X154320713Y-84280057D01*
X154320713Y-84280057D02*
X154368332Y-84375295D01*
X154368332Y-84375295D02*
X154368332Y-84518152D01*
X154368332Y-84518152D02*
X154320713Y-84613390D01*
X154320713Y-84613390D02*
X154273094Y-84661009D01*
X154273094Y-84661009D02*
X154177856Y-84708628D01*
X154177856Y-84708628D02*
X153796904Y-84708628D01*
X154939761Y-84613390D02*
X154844523Y-84565771D01*
X154844523Y-84565771D02*
X154796904Y-84518152D01*
X154796904Y-84518152D02*
X154749285Y-84422914D01*
X154749285Y-84422914D02*
X154749285Y-84375295D01*
X154749285Y-84375295D02*
X154796904Y-84280057D01*
X154796904Y-84280057D02*
X154844523Y-84232438D01*
X154844523Y-84232438D02*
X154939761Y-84184819D01*
X154939761Y-84184819D02*
X155130237Y-84184819D01*
X155130237Y-84184819D02*
X155225475Y-84232438D01*
X155225475Y-84232438D02*
X155273094Y-84280057D01*
X155273094Y-84280057D02*
X155320713Y-84375295D01*
X155320713Y-84375295D02*
X155320713Y-84422914D01*
X155320713Y-84422914D02*
X155273094Y-84518152D01*
X155273094Y-84518152D02*
X155225475Y-84565771D01*
X155225475Y-84565771D02*
X155130237Y-84613390D01*
X155130237Y-84613390D02*
X154939761Y-84613390D01*
X154939761Y-84613390D02*
X154844523Y-84661009D01*
X154844523Y-84661009D02*
X154796904Y-84708628D01*
X154796904Y-84708628D02*
X154749285Y-84803866D01*
X154749285Y-84803866D02*
X154749285Y-84994342D01*
X154749285Y-84994342D02*
X154796904Y-85089580D01*
X154796904Y-85089580D02*
X154844523Y-85137200D01*
X154844523Y-85137200D02*
X154939761Y-85184819D01*
X154939761Y-85184819D02*
X155130237Y-85184819D01*
X155130237Y-85184819D02*
X155225475Y-85137200D01*
X155225475Y-85137200D02*
X155273094Y-85089580D01*
X155273094Y-85089580D02*
X155320713Y-84994342D01*
X155320713Y-84994342D02*
X155320713Y-84803866D01*
X155320713Y-84803866D02*
X155273094Y-84708628D01*
X155273094Y-84708628D02*
X155225475Y-84661009D01*
X155225475Y-84661009D02*
X155130237Y-84613390D01*
X109666666Y-106684819D02*
X109666666Y-107399104D01*
X109666666Y-107399104D02*
X109619047Y-107541961D01*
X109619047Y-107541961D02*
X109523809Y-107637200D01*
X109523809Y-107637200D02*
X109380952Y-107684819D01*
X109380952Y-107684819D02*
X109285714Y-107684819D01*
X110285714Y-107113390D02*
X110190476Y-107065771D01*
X110190476Y-107065771D02*
X110142857Y-107018152D01*
X110142857Y-107018152D02*
X110095238Y-106922914D01*
X110095238Y-106922914D02*
X110095238Y-106875295D01*
X110095238Y-106875295D02*
X110142857Y-106780057D01*
X110142857Y-106780057D02*
X110190476Y-106732438D01*
X110190476Y-106732438D02*
X110285714Y-106684819D01*
X110285714Y-106684819D02*
X110476190Y-106684819D01*
X110476190Y-106684819D02*
X110571428Y-106732438D01*
X110571428Y-106732438D02*
X110619047Y-106780057D01*
X110619047Y-106780057D02*
X110666666Y-106875295D01*
X110666666Y-106875295D02*
X110666666Y-106922914D01*
X110666666Y-106922914D02*
X110619047Y-107018152D01*
X110619047Y-107018152D02*
X110571428Y-107065771D01*
X110571428Y-107065771D02*
X110476190Y-107113390D01*
X110476190Y-107113390D02*
X110285714Y-107113390D01*
X110285714Y-107113390D02*
X110190476Y-107161009D01*
X110190476Y-107161009D02*
X110142857Y-107208628D01*
X110142857Y-107208628D02*
X110095238Y-107303866D01*
X110095238Y-107303866D02*
X110095238Y-107494342D01*
X110095238Y-107494342D02*
X110142857Y-107589580D01*
X110142857Y-107589580D02*
X110190476Y-107637200D01*
X110190476Y-107637200D02*
X110285714Y-107684819D01*
X110285714Y-107684819D02*
X110476190Y-107684819D01*
X110476190Y-107684819D02*
X110571428Y-107637200D01*
X110571428Y-107637200D02*
X110619047Y-107589580D01*
X110619047Y-107589580D02*
X110666666Y-107494342D01*
X110666666Y-107494342D02*
X110666666Y-107303866D01*
X110666666Y-107303866D02*
X110619047Y-107208628D01*
X110619047Y-107208628D02*
X110571428Y-107161009D01*
X110571428Y-107161009D02*
X110476190Y-107113390D01*
X122633333Y-85347319D02*
X122300000Y-84871128D01*
X122061905Y-85347319D02*
X122061905Y-84347319D01*
X122061905Y-84347319D02*
X122442857Y-84347319D01*
X122442857Y-84347319D02*
X122538095Y-84394938D01*
X122538095Y-84394938D02*
X122585714Y-84442557D01*
X122585714Y-84442557D02*
X122633333Y-84537795D01*
X122633333Y-84537795D02*
X122633333Y-84680652D01*
X122633333Y-84680652D02*
X122585714Y-84775890D01*
X122585714Y-84775890D02*
X122538095Y-84823509D01*
X122538095Y-84823509D02*
X122442857Y-84871128D01*
X122442857Y-84871128D02*
X122061905Y-84871128D01*
X123538095Y-84347319D02*
X123061905Y-84347319D01*
X123061905Y-84347319D02*
X123014286Y-84823509D01*
X123014286Y-84823509D02*
X123061905Y-84775890D01*
X123061905Y-84775890D02*
X123157143Y-84728271D01*
X123157143Y-84728271D02*
X123395238Y-84728271D01*
X123395238Y-84728271D02*
X123490476Y-84775890D01*
X123490476Y-84775890D02*
X123538095Y-84823509D01*
X123538095Y-84823509D02*
X123585714Y-84918747D01*
X123585714Y-84918747D02*
X123585714Y-85156842D01*
X123585714Y-85156842D02*
X123538095Y-85252080D01*
X123538095Y-85252080D02*
X123490476Y-85299700D01*
X123490476Y-85299700D02*
X123395238Y-85347319D01*
X123395238Y-85347319D02*
X123157143Y-85347319D01*
X123157143Y-85347319D02*
X123061905Y-85299700D01*
X123061905Y-85299700D02*
X123014286Y-85252080D01*
X175666666Y-92684819D02*
X175666666Y-93399104D01*
X175666666Y-93399104D02*
X175619047Y-93541961D01*
X175619047Y-93541961D02*
X175523809Y-93637200D01*
X175523809Y-93637200D02*
X175380952Y-93684819D01*
X175380952Y-93684819D02*
X175285714Y-93684819D01*
X176047619Y-92684819D02*
X176714285Y-92684819D01*
X176714285Y-92684819D02*
X176285714Y-93684819D01*
X158202618Y-55614819D02*
X157869285Y-55138628D01*
X157631190Y-55614819D02*
X157631190Y-54614819D01*
X157631190Y-54614819D02*
X158012142Y-54614819D01*
X158012142Y-54614819D02*
X158107380Y-54662438D01*
X158107380Y-54662438D02*
X158154999Y-54710057D01*
X158154999Y-54710057D02*
X158202618Y-54805295D01*
X158202618Y-54805295D02*
X158202618Y-54948152D01*
X158202618Y-54948152D02*
X158154999Y-55043390D01*
X158154999Y-55043390D02*
X158107380Y-55091009D01*
X158107380Y-55091009D02*
X158012142Y-55138628D01*
X158012142Y-55138628D02*
X157631190Y-55138628D01*
X158488333Y-54948152D02*
X158869285Y-54948152D01*
X158631190Y-54614819D02*
X158631190Y-55471961D01*
X158631190Y-55471961D02*
X158678809Y-55567200D01*
X158678809Y-55567200D02*
X158774047Y-55614819D01*
X158774047Y-55614819D02*
X158869285Y-55614819D01*
X159678809Y-54614819D02*
X159202619Y-54614819D01*
X159202619Y-54614819D02*
X159155000Y-55091009D01*
X159155000Y-55091009D02*
X159202619Y-55043390D01*
X159202619Y-55043390D02*
X159297857Y-54995771D01*
X159297857Y-54995771D02*
X159535952Y-54995771D01*
X159535952Y-54995771D02*
X159631190Y-55043390D01*
X159631190Y-55043390D02*
X159678809Y-55091009D01*
X159678809Y-55091009D02*
X159726428Y-55186247D01*
X159726428Y-55186247D02*
X159726428Y-55424342D01*
X159726428Y-55424342D02*
X159678809Y-55519580D01*
X159678809Y-55519580D02*
X159631190Y-55567200D01*
X159631190Y-55567200D02*
X159535952Y-55614819D01*
X159535952Y-55614819D02*
X159297857Y-55614819D01*
X159297857Y-55614819D02*
X159202619Y-55567200D01*
X159202619Y-55567200D02*
X159155000Y-55519580D01*
X157873332Y-78604819D02*
X157539999Y-78128628D01*
X157301904Y-78604819D02*
X157301904Y-77604819D01*
X157301904Y-77604819D02*
X157682856Y-77604819D01*
X157682856Y-77604819D02*
X157778094Y-77652438D01*
X157778094Y-77652438D02*
X157825713Y-77700057D01*
X157825713Y-77700057D02*
X157873332Y-77795295D01*
X157873332Y-77795295D02*
X157873332Y-77938152D01*
X157873332Y-77938152D02*
X157825713Y-78033390D01*
X157825713Y-78033390D02*
X157778094Y-78081009D01*
X157778094Y-78081009D02*
X157682856Y-78128628D01*
X157682856Y-78128628D02*
X157301904Y-78128628D01*
X158730475Y-77604819D02*
X158539999Y-77604819D01*
X158539999Y-77604819D02*
X158444761Y-77652438D01*
X158444761Y-77652438D02*
X158397142Y-77700057D01*
X158397142Y-77700057D02*
X158301904Y-77842914D01*
X158301904Y-77842914D02*
X158254285Y-78033390D01*
X158254285Y-78033390D02*
X158254285Y-78414342D01*
X158254285Y-78414342D02*
X158301904Y-78509580D01*
X158301904Y-78509580D02*
X158349523Y-78557200D01*
X158349523Y-78557200D02*
X158444761Y-78604819D01*
X158444761Y-78604819D02*
X158635237Y-78604819D01*
X158635237Y-78604819D02*
X158730475Y-78557200D01*
X158730475Y-78557200D02*
X158778094Y-78509580D01*
X158778094Y-78509580D02*
X158825713Y-78414342D01*
X158825713Y-78414342D02*
X158825713Y-78176247D01*
X158825713Y-78176247D02*
X158778094Y-78081009D01*
X158778094Y-78081009D02*
X158730475Y-78033390D01*
X158730475Y-78033390D02*
X158635237Y-77985771D01*
X158635237Y-77985771D02*
X158444761Y-77985771D01*
X158444761Y-77985771D02*
X158349523Y-78033390D01*
X158349523Y-78033390D02*
X158301904Y-78081009D01*
X158301904Y-78081009D02*
X158254285Y-78176247D01*
X148139819Y-135938094D02*
X147139819Y-135938094D01*
X147139819Y-135938094D02*
X147139819Y-135699999D01*
X147139819Y-135699999D02*
X147187438Y-135557142D01*
X147187438Y-135557142D02*
X147282676Y-135461904D01*
X147282676Y-135461904D02*
X147377914Y-135414285D01*
X147377914Y-135414285D02*
X147568390Y-135366666D01*
X147568390Y-135366666D02*
X147711247Y-135366666D01*
X147711247Y-135366666D02*
X147901723Y-135414285D01*
X147901723Y-135414285D02*
X147996961Y-135461904D01*
X147996961Y-135461904D02*
X148092200Y-135557142D01*
X148092200Y-135557142D02*
X148139819Y-135699999D01*
X148139819Y-135699999D02*
X148139819Y-135938094D01*
X148139819Y-134414285D02*
X148139819Y-134985713D01*
X148139819Y-134699999D02*
X147139819Y-134699999D01*
X147139819Y-134699999D02*
X147282676Y-134795237D01*
X147282676Y-134795237D02*
X147377914Y-134890475D01*
X147377914Y-134890475D02*
X147425533Y-134985713D01*
X115224819Y-81699166D02*
X114748628Y-82032499D01*
X115224819Y-82270594D02*
X114224819Y-82270594D01*
X114224819Y-82270594D02*
X114224819Y-81889642D01*
X114224819Y-81889642D02*
X114272438Y-81794404D01*
X114272438Y-81794404D02*
X114320057Y-81746785D01*
X114320057Y-81746785D02*
X114415295Y-81699166D01*
X114415295Y-81699166D02*
X114558152Y-81699166D01*
X114558152Y-81699166D02*
X114653390Y-81746785D01*
X114653390Y-81746785D02*
X114701009Y-81794404D01*
X114701009Y-81794404D02*
X114748628Y-81889642D01*
X114748628Y-81889642D02*
X114748628Y-82270594D01*
X114558152Y-80842023D02*
X115224819Y-80842023D01*
X114177200Y-81080118D02*
X114891485Y-81318213D01*
X114891485Y-81318213D02*
X114891485Y-80699166D01*
X126974761Y-85772557D02*
X126879523Y-85724938D01*
X126879523Y-85724938D02*
X126784285Y-85629700D01*
X126784285Y-85629700D02*
X126641428Y-85486842D01*
X126641428Y-85486842D02*
X126546190Y-85439223D01*
X126546190Y-85439223D02*
X126450952Y-85439223D01*
X126498571Y-85677319D02*
X126403333Y-85629700D01*
X126403333Y-85629700D02*
X126308095Y-85534461D01*
X126308095Y-85534461D02*
X126260476Y-85343985D01*
X126260476Y-85343985D02*
X126260476Y-85010652D01*
X126260476Y-85010652D02*
X126308095Y-84820176D01*
X126308095Y-84820176D02*
X126403333Y-84724938D01*
X126403333Y-84724938D02*
X126498571Y-84677319D01*
X126498571Y-84677319D02*
X126689047Y-84677319D01*
X126689047Y-84677319D02*
X126784285Y-84724938D01*
X126784285Y-84724938D02*
X126879523Y-84820176D01*
X126879523Y-84820176D02*
X126927142Y-85010652D01*
X126927142Y-85010652D02*
X126927142Y-85343985D01*
X126927142Y-85343985D02*
X126879523Y-85534461D01*
X126879523Y-85534461D02*
X126784285Y-85629700D01*
X126784285Y-85629700D02*
X126689047Y-85677319D01*
X126689047Y-85677319D02*
X126498571Y-85677319D01*
X127879523Y-85677319D02*
X127308095Y-85677319D01*
X127593809Y-85677319D02*
X127593809Y-84677319D01*
X127593809Y-84677319D02*
X127498571Y-84820176D01*
X127498571Y-84820176D02*
X127403333Y-84915414D01*
X127403333Y-84915414D02*
X127308095Y-84963033D01*
X115490476Y-45824819D02*
X115490476Y-46539104D01*
X115490476Y-46539104D02*
X115442857Y-46681961D01*
X115442857Y-46681961D02*
X115347619Y-46777200D01*
X115347619Y-46777200D02*
X115204762Y-46824819D01*
X115204762Y-46824819D02*
X115109524Y-46824819D01*
X116490476Y-46824819D02*
X115919048Y-46824819D01*
X116204762Y-46824819D02*
X116204762Y-45824819D01*
X116204762Y-45824819D02*
X116109524Y-45967676D01*
X116109524Y-45967676D02*
X116014286Y-46062914D01*
X116014286Y-46062914D02*
X115919048Y-46110533D01*
X116871429Y-45920057D02*
X116919048Y-45872438D01*
X116919048Y-45872438D02*
X117014286Y-45824819D01*
X117014286Y-45824819D02*
X117252381Y-45824819D01*
X117252381Y-45824819D02*
X117347619Y-45872438D01*
X117347619Y-45872438D02*
X117395238Y-45920057D01*
X117395238Y-45920057D02*
X117442857Y-46015295D01*
X117442857Y-46015295D02*
X117442857Y-46110533D01*
X117442857Y-46110533D02*
X117395238Y-46253390D01*
X117395238Y-46253390D02*
X116823810Y-46824819D01*
X116823810Y-46824819D02*
X117442857Y-46824819D01*
X118783333Y-85337319D02*
X118450000Y-84861128D01*
X118211905Y-85337319D02*
X118211905Y-84337319D01*
X118211905Y-84337319D02*
X118592857Y-84337319D01*
X118592857Y-84337319D02*
X118688095Y-84384938D01*
X118688095Y-84384938D02*
X118735714Y-84432557D01*
X118735714Y-84432557D02*
X118783333Y-84527795D01*
X118783333Y-84527795D02*
X118783333Y-84670652D01*
X118783333Y-84670652D02*
X118735714Y-84765890D01*
X118735714Y-84765890D02*
X118688095Y-84813509D01*
X118688095Y-84813509D02*
X118592857Y-84861128D01*
X118592857Y-84861128D02*
X118211905Y-84861128D01*
X119116667Y-84337319D02*
X119735714Y-84337319D01*
X119735714Y-84337319D02*
X119402381Y-84718271D01*
X119402381Y-84718271D02*
X119545238Y-84718271D01*
X119545238Y-84718271D02*
X119640476Y-84765890D01*
X119640476Y-84765890D02*
X119688095Y-84813509D01*
X119688095Y-84813509D02*
X119735714Y-84908747D01*
X119735714Y-84908747D02*
X119735714Y-85146842D01*
X119735714Y-85146842D02*
X119688095Y-85242080D01*
X119688095Y-85242080D02*
X119640476Y-85289700D01*
X119640476Y-85289700D02*
X119545238Y-85337319D01*
X119545238Y-85337319D02*
X119259524Y-85337319D01*
X119259524Y-85337319D02*
X119164286Y-85289700D01*
X119164286Y-85289700D02*
X119116667Y-85242080D01*
X154923333Y-55389580D02*
X154875714Y-55437200D01*
X154875714Y-55437200D02*
X154732857Y-55484819D01*
X154732857Y-55484819D02*
X154637619Y-55484819D01*
X154637619Y-55484819D02*
X154494762Y-55437200D01*
X154494762Y-55437200D02*
X154399524Y-55341961D01*
X154399524Y-55341961D02*
X154351905Y-55246723D01*
X154351905Y-55246723D02*
X154304286Y-55056247D01*
X154304286Y-55056247D02*
X154304286Y-54913390D01*
X154304286Y-54913390D02*
X154351905Y-54722914D01*
X154351905Y-54722914D02*
X154399524Y-54627676D01*
X154399524Y-54627676D02*
X154494762Y-54532438D01*
X154494762Y-54532438D02*
X154637619Y-54484819D01*
X154637619Y-54484819D02*
X154732857Y-54484819D01*
X154732857Y-54484819D02*
X154875714Y-54532438D01*
X154875714Y-54532438D02*
X154923333Y-54580057D01*
X155256667Y-54484819D02*
X155875714Y-54484819D01*
X155875714Y-54484819D02*
X155542381Y-54865771D01*
X155542381Y-54865771D02*
X155685238Y-54865771D01*
X155685238Y-54865771D02*
X155780476Y-54913390D01*
X155780476Y-54913390D02*
X155828095Y-54961009D01*
X155828095Y-54961009D02*
X155875714Y-55056247D01*
X155875714Y-55056247D02*
X155875714Y-55294342D01*
X155875714Y-55294342D02*
X155828095Y-55389580D01*
X155828095Y-55389580D02*
X155780476Y-55437200D01*
X155780476Y-55437200D02*
X155685238Y-55484819D01*
X155685238Y-55484819D02*
X155399524Y-55484819D01*
X155399524Y-55484819D02*
X155304286Y-55437200D01*
X155304286Y-55437200D02*
X155256667Y-55389580D01*
X118434819Y-60725713D02*
X118434819Y-60154285D01*
X119434819Y-60439999D02*
X118434819Y-60439999D01*
X119434819Y-59820951D02*
X118434819Y-59820951D01*
X118911009Y-59820951D02*
X118911009Y-59249523D01*
X119434819Y-59249523D02*
X118434819Y-59249523D01*
X119434819Y-58249523D02*
X119434819Y-58820951D01*
X119434819Y-58535237D02*
X118434819Y-58535237D01*
X118434819Y-58535237D02*
X118577676Y-58630475D01*
X118577676Y-58630475D02*
X118672914Y-58725713D01*
X118672914Y-58725713D02*
X118720533Y-58820951D01*
X157407618Y-65364819D02*
X157074285Y-64888628D01*
X156836190Y-65364819D02*
X156836190Y-64364819D01*
X156836190Y-64364819D02*
X157217142Y-64364819D01*
X157217142Y-64364819D02*
X157312380Y-64412438D01*
X157312380Y-64412438D02*
X157359999Y-64460057D01*
X157359999Y-64460057D02*
X157407618Y-64555295D01*
X157407618Y-64555295D02*
X157407618Y-64698152D01*
X157407618Y-64698152D02*
X157359999Y-64793390D01*
X157359999Y-64793390D02*
X157312380Y-64841009D01*
X157312380Y-64841009D02*
X157217142Y-64888628D01*
X157217142Y-64888628D02*
X156836190Y-64888628D01*
X157693333Y-64698152D02*
X158074285Y-64698152D01*
X157836190Y-64364819D02*
X157836190Y-65221961D01*
X157836190Y-65221961D02*
X157883809Y-65317200D01*
X157883809Y-65317200D02*
X157979047Y-65364819D01*
X157979047Y-65364819D02*
X158074285Y-65364819D01*
X158312381Y-64364819D02*
X158979047Y-64364819D01*
X158979047Y-64364819D02*
X158550476Y-65364819D01*
X124403333Y-55349580D02*
X124355714Y-55397200D01*
X124355714Y-55397200D02*
X124212857Y-55444819D01*
X124212857Y-55444819D02*
X124117619Y-55444819D01*
X124117619Y-55444819D02*
X123974762Y-55397200D01*
X123974762Y-55397200D02*
X123879524Y-55301961D01*
X123879524Y-55301961D02*
X123831905Y-55206723D01*
X123831905Y-55206723D02*
X123784286Y-55016247D01*
X123784286Y-55016247D02*
X123784286Y-54873390D01*
X123784286Y-54873390D02*
X123831905Y-54682914D01*
X123831905Y-54682914D02*
X123879524Y-54587676D01*
X123879524Y-54587676D02*
X123974762Y-54492438D01*
X123974762Y-54492438D02*
X124117619Y-54444819D01*
X124117619Y-54444819D02*
X124212857Y-54444819D01*
X124212857Y-54444819D02*
X124355714Y-54492438D01*
X124355714Y-54492438D02*
X124403333Y-54540057D01*
X125355714Y-55444819D02*
X124784286Y-55444819D01*
X125070000Y-55444819D02*
X125070000Y-54444819D01*
X125070000Y-54444819D02*
X124974762Y-54587676D01*
X124974762Y-54587676D02*
X124879524Y-54682914D01*
X124879524Y-54682914D02*
X124784286Y-54730533D01*
X157422618Y-70104819D02*
X157089285Y-69628628D01*
X156851190Y-70104819D02*
X156851190Y-69104819D01*
X156851190Y-69104819D02*
X157232142Y-69104819D01*
X157232142Y-69104819D02*
X157327380Y-69152438D01*
X157327380Y-69152438D02*
X157374999Y-69200057D01*
X157374999Y-69200057D02*
X157422618Y-69295295D01*
X157422618Y-69295295D02*
X157422618Y-69438152D01*
X157422618Y-69438152D02*
X157374999Y-69533390D01*
X157374999Y-69533390D02*
X157327380Y-69581009D01*
X157327380Y-69581009D02*
X157232142Y-69628628D01*
X157232142Y-69628628D02*
X156851190Y-69628628D01*
X157708333Y-69438152D02*
X158089285Y-69438152D01*
X157851190Y-69104819D02*
X157851190Y-69961961D01*
X157851190Y-69961961D02*
X157898809Y-70057200D01*
X157898809Y-70057200D02*
X157994047Y-70104819D01*
X157994047Y-70104819D02*
X158089285Y-70104819D01*
X158565476Y-69533390D02*
X158470238Y-69485771D01*
X158470238Y-69485771D02*
X158422619Y-69438152D01*
X158422619Y-69438152D02*
X158375000Y-69342914D01*
X158375000Y-69342914D02*
X158375000Y-69295295D01*
X158375000Y-69295295D02*
X158422619Y-69200057D01*
X158422619Y-69200057D02*
X158470238Y-69152438D01*
X158470238Y-69152438D02*
X158565476Y-69104819D01*
X158565476Y-69104819D02*
X158755952Y-69104819D01*
X158755952Y-69104819D02*
X158851190Y-69152438D01*
X158851190Y-69152438D02*
X158898809Y-69200057D01*
X158898809Y-69200057D02*
X158946428Y-69295295D01*
X158946428Y-69295295D02*
X158946428Y-69342914D01*
X158946428Y-69342914D02*
X158898809Y-69438152D01*
X158898809Y-69438152D02*
X158851190Y-69485771D01*
X158851190Y-69485771D02*
X158755952Y-69533390D01*
X158755952Y-69533390D02*
X158565476Y-69533390D01*
X158565476Y-69533390D02*
X158470238Y-69581009D01*
X158470238Y-69581009D02*
X158422619Y-69628628D01*
X158422619Y-69628628D02*
X158375000Y-69723866D01*
X158375000Y-69723866D02*
X158375000Y-69914342D01*
X158375000Y-69914342D02*
X158422619Y-70009580D01*
X158422619Y-70009580D02*
X158470238Y-70057200D01*
X158470238Y-70057200D02*
X158565476Y-70104819D01*
X158565476Y-70104819D02*
X158755952Y-70104819D01*
X158755952Y-70104819D02*
X158851190Y-70057200D01*
X158851190Y-70057200D02*
X158898809Y-70009580D01*
X158898809Y-70009580D02*
X158946428Y-69914342D01*
X158946428Y-69914342D02*
X158946428Y-69723866D01*
X158946428Y-69723866D02*
X158898809Y-69628628D01*
X158898809Y-69628628D02*
X158851190Y-69581009D01*
X158851190Y-69581009D02*
X158755952Y-69533390D01*
X149144819Y-60745713D02*
X149144819Y-60174285D01*
X150144819Y-60459999D02*
X149144819Y-60459999D01*
X150144819Y-59840951D02*
X149144819Y-59840951D01*
X149621009Y-59840951D02*
X149621009Y-59269523D01*
X150144819Y-59269523D02*
X149144819Y-59269523D01*
X149144819Y-58888570D02*
X149144819Y-58269523D01*
X149144819Y-58269523D02*
X149525771Y-58602856D01*
X149525771Y-58602856D02*
X149525771Y-58459999D01*
X149525771Y-58459999D02*
X149573390Y-58364761D01*
X149573390Y-58364761D02*
X149621009Y-58317142D01*
X149621009Y-58317142D02*
X149716247Y-58269523D01*
X149716247Y-58269523D02*
X149954342Y-58269523D01*
X149954342Y-58269523D02*
X150049580Y-58317142D01*
X150049580Y-58317142D02*
X150097200Y-58364761D01*
X150097200Y-58364761D02*
X150144819Y-58459999D01*
X150144819Y-58459999D02*
X150144819Y-58745713D01*
X150144819Y-58745713D02*
X150097200Y-58840951D01*
X150097200Y-58840951D02*
X150049580Y-58888570D01*
X109666666Y-74684819D02*
X109666666Y-75399104D01*
X109666666Y-75399104D02*
X109619047Y-75541961D01*
X109619047Y-75541961D02*
X109523809Y-75637200D01*
X109523809Y-75637200D02*
X109380952Y-75684819D01*
X109380952Y-75684819D02*
X109285714Y-75684819D01*
X110571428Y-75018152D02*
X110571428Y-75684819D01*
X110333333Y-74637200D02*
X110095238Y-75351485D01*
X110095238Y-75351485D02*
X110714285Y-75351485D01*
X175666666Y-106684819D02*
X175666666Y-107399104D01*
X175666666Y-107399104D02*
X175619047Y-107541961D01*
X175619047Y-107541961D02*
X175523809Y-107637200D01*
X175523809Y-107637200D02*
X175380952Y-107684819D01*
X175380952Y-107684819D02*
X175285714Y-107684819D01*
X176190476Y-107684819D02*
X176380952Y-107684819D01*
X176380952Y-107684819D02*
X176476190Y-107637200D01*
X176476190Y-107637200D02*
X176523809Y-107589580D01*
X176523809Y-107589580D02*
X176619047Y-107446723D01*
X176619047Y-107446723D02*
X176666666Y-107256247D01*
X176666666Y-107256247D02*
X176666666Y-106875295D01*
X176666666Y-106875295D02*
X176619047Y-106780057D01*
X176619047Y-106780057D02*
X176571428Y-106732438D01*
X176571428Y-106732438D02*
X176476190Y-106684819D01*
X176476190Y-106684819D02*
X176285714Y-106684819D01*
X176285714Y-106684819D02*
X176190476Y-106732438D01*
X176190476Y-106732438D02*
X176142857Y-106780057D01*
X176142857Y-106780057D02*
X176095238Y-106875295D01*
X176095238Y-106875295D02*
X176095238Y-107113390D01*
X176095238Y-107113390D02*
X176142857Y-107208628D01*
X176142857Y-107208628D02*
X176190476Y-107256247D01*
X176190476Y-107256247D02*
X176285714Y-107303866D01*
X176285714Y-107303866D02*
X176476190Y-107303866D01*
X176476190Y-107303866D02*
X176571428Y-107256247D01*
X176571428Y-107256247D02*
X176619047Y-107208628D01*
X176619047Y-107208628D02*
X176666666Y-107113390D01*
X135989819Y-135938094D02*
X134989819Y-135938094D01*
X134989819Y-135938094D02*
X134989819Y-135699999D01*
X134989819Y-135699999D02*
X135037438Y-135557142D01*
X135037438Y-135557142D02*
X135132676Y-135461904D01*
X135132676Y-135461904D02*
X135227914Y-135414285D01*
X135227914Y-135414285D02*
X135418390Y-135366666D01*
X135418390Y-135366666D02*
X135561247Y-135366666D01*
X135561247Y-135366666D02*
X135751723Y-135414285D01*
X135751723Y-135414285D02*
X135846961Y-135461904D01*
X135846961Y-135461904D02*
X135942200Y-135557142D01*
X135942200Y-135557142D02*
X135989819Y-135699999D01*
X135989819Y-135699999D02*
X135989819Y-135938094D01*
X135323152Y-134509523D02*
X135989819Y-134509523D01*
X134942200Y-134747618D02*
X135656485Y-134985713D01*
X135656485Y-134985713D02*
X135656485Y-134366666D01*
X109666666Y-93684819D02*
X109666666Y-94399104D01*
X109666666Y-94399104D02*
X109619047Y-94541961D01*
X109619047Y-94541961D02*
X109523809Y-94637200D01*
X109523809Y-94637200D02*
X109380952Y-94684819D01*
X109380952Y-94684819D02*
X109285714Y-94684819D01*
X110571428Y-93684819D02*
X110380952Y-93684819D01*
X110380952Y-93684819D02*
X110285714Y-93732438D01*
X110285714Y-93732438D02*
X110238095Y-93780057D01*
X110238095Y-93780057D02*
X110142857Y-93922914D01*
X110142857Y-93922914D02*
X110095238Y-94113390D01*
X110095238Y-94113390D02*
X110095238Y-94494342D01*
X110095238Y-94494342D02*
X110142857Y-94589580D01*
X110142857Y-94589580D02*
X110190476Y-94637200D01*
X110190476Y-94637200D02*
X110285714Y-94684819D01*
X110285714Y-94684819D02*
X110476190Y-94684819D01*
X110476190Y-94684819D02*
X110571428Y-94637200D01*
X110571428Y-94637200D02*
X110619047Y-94589580D01*
X110619047Y-94589580D02*
X110666666Y-94494342D01*
X110666666Y-94494342D02*
X110666666Y-94256247D01*
X110666666Y-94256247D02*
X110619047Y-94161009D01*
X110619047Y-94161009D02*
X110571428Y-94113390D01*
X110571428Y-94113390D02*
X110476190Y-94065771D01*
X110476190Y-94065771D02*
X110285714Y-94065771D01*
X110285714Y-94065771D02*
X110190476Y-94113390D01*
X110190476Y-94113390D02*
X110142857Y-94161009D01*
X110142857Y-94161009D02*
X110095238Y-94256247D01*
X154468333Y-64949580D02*
X154420714Y-64997200D01*
X154420714Y-64997200D02*
X154277857Y-65044819D01*
X154277857Y-65044819D02*
X154182619Y-65044819D01*
X154182619Y-65044819D02*
X154039762Y-64997200D01*
X154039762Y-64997200D02*
X153944524Y-64901961D01*
X153944524Y-64901961D02*
X153896905Y-64806723D01*
X153896905Y-64806723D02*
X153849286Y-64616247D01*
X153849286Y-64616247D02*
X153849286Y-64473390D01*
X153849286Y-64473390D02*
X153896905Y-64282914D01*
X153896905Y-64282914D02*
X153944524Y-64187676D01*
X153944524Y-64187676D02*
X154039762Y-64092438D01*
X154039762Y-64092438D02*
X154182619Y-64044819D01*
X154182619Y-64044819D02*
X154277857Y-64044819D01*
X154277857Y-64044819D02*
X154420714Y-64092438D01*
X154420714Y-64092438D02*
X154468333Y-64140057D01*
X155325476Y-64378152D02*
X155325476Y-65044819D01*
X155087381Y-63997200D02*
X154849286Y-64711485D01*
X154849286Y-64711485D02*
X155468333Y-64711485D01*
X123633333Y-80367319D02*
X123300000Y-79891128D01*
X123061905Y-80367319D02*
X123061905Y-79367319D01*
X123061905Y-79367319D02*
X123442857Y-79367319D01*
X123442857Y-79367319D02*
X123538095Y-79414938D01*
X123538095Y-79414938D02*
X123585714Y-79462557D01*
X123585714Y-79462557D02*
X123633333Y-79557795D01*
X123633333Y-79557795D02*
X123633333Y-79700652D01*
X123633333Y-79700652D02*
X123585714Y-79795890D01*
X123585714Y-79795890D02*
X123538095Y-79843509D01*
X123538095Y-79843509D02*
X123442857Y-79891128D01*
X123442857Y-79891128D02*
X123061905Y-79891128D01*
X124585714Y-80367319D02*
X124014286Y-80367319D01*
X124300000Y-80367319D02*
X124300000Y-79367319D01*
X124300000Y-79367319D02*
X124204762Y-79510176D01*
X124204762Y-79510176D02*
X124109524Y-79605414D01*
X124109524Y-79605414D02*
X124014286Y-79653033D01*
X164609818Y-82536666D02*
X164133627Y-82869999D01*
X164609818Y-83108094D02*
X163609818Y-83108094D01*
X163609818Y-83108094D02*
X163609818Y-82727142D01*
X163609818Y-82727142D02*
X163657437Y-82631904D01*
X163657437Y-82631904D02*
X163705056Y-82584285D01*
X163705056Y-82584285D02*
X163800294Y-82536666D01*
X163800294Y-82536666D02*
X163943151Y-82536666D01*
X163943151Y-82536666D02*
X164038389Y-82584285D01*
X164038389Y-82584285D02*
X164086008Y-82631904D01*
X164086008Y-82631904D02*
X164133627Y-82727142D01*
X164133627Y-82727142D02*
X164133627Y-83108094D01*
X163609818Y-82203332D02*
X163609818Y-81536666D01*
X163609818Y-81536666D02*
X164609818Y-81965237D01*
X159017260Y-85580057D02*
X158922022Y-85532438D01*
X158922022Y-85532438D02*
X158826784Y-85437200D01*
X158826784Y-85437200D02*
X158683927Y-85294342D01*
X158683927Y-85294342D02*
X158588689Y-85246723D01*
X158588689Y-85246723D02*
X158493451Y-85246723D01*
X158541070Y-85484819D02*
X158445832Y-85437200D01*
X158445832Y-85437200D02*
X158350594Y-85341961D01*
X158350594Y-85341961D02*
X158302975Y-85151485D01*
X158302975Y-85151485D02*
X158302975Y-84818152D01*
X158302975Y-84818152D02*
X158350594Y-84627676D01*
X158350594Y-84627676D02*
X158445832Y-84532438D01*
X158445832Y-84532438D02*
X158541070Y-84484819D01*
X158541070Y-84484819D02*
X158731546Y-84484819D01*
X158731546Y-84484819D02*
X158826784Y-84532438D01*
X158826784Y-84532438D02*
X158922022Y-84627676D01*
X158922022Y-84627676D02*
X158969641Y-84818152D01*
X158969641Y-84818152D02*
X158969641Y-85151485D01*
X158969641Y-85151485D02*
X158922022Y-85341961D01*
X158922022Y-85341961D02*
X158826784Y-85437200D01*
X158826784Y-85437200D02*
X158731546Y-85484819D01*
X158731546Y-85484819D02*
X158541070Y-85484819D01*
X159350594Y-84580057D02*
X159398213Y-84532438D01*
X159398213Y-84532438D02*
X159493451Y-84484819D01*
X159493451Y-84484819D02*
X159731546Y-84484819D01*
X159731546Y-84484819D02*
X159826784Y-84532438D01*
X159826784Y-84532438D02*
X159874403Y-84580057D01*
X159874403Y-84580057D02*
X159922022Y-84675295D01*
X159922022Y-84675295D02*
X159922022Y-84770533D01*
X159922022Y-84770533D02*
X159874403Y-84913390D01*
X159874403Y-84913390D02*
X159302975Y-85484819D01*
X159302975Y-85484819D02*
X159922022Y-85484819D01*
X148664819Y-70335713D02*
X148664819Y-69764285D01*
X149664819Y-70049999D02*
X148664819Y-70049999D01*
X149664819Y-69430951D02*
X148664819Y-69430951D01*
X149141009Y-69430951D02*
X149141009Y-68859523D01*
X149664819Y-68859523D02*
X148664819Y-68859523D01*
X148998152Y-67954761D02*
X149664819Y-67954761D01*
X148617200Y-68192856D02*
X149331485Y-68430951D01*
X149331485Y-68430951D02*
X149331485Y-67811904D01*
X126347618Y-65224819D02*
X126014285Y-64748628D01*
X125776190Y-65224819D02*
X125776190Y-64224819D01*
X125776190Y-64224819D02*
X126157142Y-64224819D01*
X126157142Y-64224819D02*
X126252380Y-64272438D01*
X126252380Y-64272438D02*
X126299999Y-64320057D01*
X126299999Y-64320057D02*
X126347618Y-64415295D01*
X126347618Y-64415295D02*
X126347618Y-64558152D01*
X126347618Y-64558152D02*
X126299999Y-64653390D01*
X126299999Y-64653390D02*
X126252380Y-64701009D01*
X126252380Y-64701009D02*
X126157142Y-64748628D01*
X126157142Y-64748628D02*
X125776190Y-64748628D01*
X126633333Y-64558152D02*
X127014285Y-64558152D01*
X126776190Y-64224819D02*
X126776190Y-65081961D01*
X126776190Y-65081961D02*
X126823809Y-65177200D01*
X126823809Y-65177200D02*
X126919047Y-65224819D01*
X126919047Y-65224819D02*
X127014285Y-65224819D01*
X127252381Y-64224819D02*
X127871428Y-64224819D01*
X127871428Y-64224819D02*
X127538095Y-64605771D01*
X127538095Y-64605771D02*
X127680952Y-64605771D01*
X127680952Y-64605771D02*
X127776190Y-64653390D01*
X127776190Y-64653390D02*
X127823809Y-64701009D01*
X127823809Y-64701009D02*
X127871428Y-64796247D01*
X127871428Y-64796247D02*
X127871428Y-65034342D01*
X127871428Y-65034342D02*
X127823809Y-65129580D01*
X127823809Y-65129580D02*
X127776190Y-65177200D01*
X127776190Y-65177200D02*
X127680952Y-65224819D01*
X127680952Y-65224819D02*
X127395238Y-65224819D01*
X127395238Y-65224819D02*
X127300000Y-65177200D01*
X127300000Y-65177200D02*
X127252381Y-65129580D01*
X175666666Y-74684819D02*
X175666666Y-75399104D01*
X175666666Y-75399104D02*
X175619047Y-75541961D01*
X175619047Y-75541961D02*
X175523809Y-75637200D01*
X175523809Y-75637200D02*
X175380952Y-75684819D01*
X175380952Y-75684819D02*
X175285714Y-75684819D01*
X176619047Y-74684819D02*
X176142857Y-74684819D01*
X176142857Y-74684819D02*
X176095238Y-75161009D01*
X176095238Y-75161009D02*
X176142857Y-75113390D01*
X176142857Y-75113390D02*
X176238095Y-75065771D01*
X176238095Y-75065771D02*
X176476190Y-75065771D01*
X176476190Y-75065771D02*
X176571428Y-75113390D01*
X176571428Y-75113390D02*
X176619047Y-75161009D01*
X176619047Y-75161009D02*
X176666666Y-75256247D01*
X176666666Y-75256247D02*
X176666666Y-75494342D01*
X176666666Y-75494342D02*
X176619047Y-75589580D01*
X176619047Y-75589580D02*
X176571428Y-75637200D01*
X176571428Y-75637200D02*
X176476190Y-75684819D01*
X176476190Y-75684819D02*
X176238095Y-75684819D01*
X176238095Y-75684819D02*
X176142857Y-75637200D01*
X176142857Y-75637200D02*
X176095238Y-75589580D01*
X175190476Y-119684819D02*
X175190476Y-120399104D01*
X175190476Y-120399104D02*
X175142857Y-120541961D01*
X175142857Y-120541961D02*
X175047619Y-120637200D01*
X175047619Y-120637200D02*
X174904762Y-120684819D01*
X174904762Y-120684819D02*
X174809524Y-120684819D01*
X176190476Y-120684819D02*
X175619048Y-120684819D01*
X175904762Y-120684819D02*
X175904762Y-119684819D01*
X175904762Y-119684819D02*
X175809524Y-119827676D01*
X175809524Y-119827676D02*
X175714286Y-119922914D01*
X175714286Y-119922914D02*
X175619048Y-119970533D01*
X177142857Y-120684819D02*
X176571429Y-120684819D01*
X176857143Y-120684819D02*
X176857143Y-119684819D01*
X176857143Y-119684819D02*
X176761905Y-119827676D01*
X176761905Y-119827676D02*
X176666667Y-119922914D01*
X176666667Y-119922914D02*
X176571429Y-119970533D01*
X158202618Y-60504819D02*
X157869285Y-60028628D01*
X157631190Y-60504819D02*
X157631190Y-59504819D01*
X157631190Y-59504819D02*
X158012142Y-59504819D01*
X158012142Y-59504819D02*
X158107380Y-59552438D01*
X158107380Y-59552438D02*
X158154999Y-59600057D01*
X158154999Y-59600057D02*
X158202618Y-59695295D01*
X158202618Y-59695295D02*
X158202618Y-59838152D01*
X158202618Y-59838152D02*
X158154999Y-59933390D01*
X158154999Y-59933390D02*
X158107380Y-59981009D01*
X158107380Y-59981009D02*
X158012142Y-60028628D01*
X158012142Y-60028628D02*
X157631190Y-60028628D01*
X158488333Y-59838152D02*
X158869285Y-59838152D01*
X158631190Y-59504819D02*
X158631190Y-60361961D01*
X158631190Y-60361961D02*
X158678809Y-60457200D01*
X158678809Y-60457200D02*
X158774047Y-60504819D01*
X158774047Y-60504819D02*
X158869285Y-60504819D01*
X159631190Y-59504819D02*
X159440714Y-59504819D01*
X159440714Y-59504819D02*
X159345476Y-59552438D01*
X159345476Y-59552438D02*
X159297857Y-59600057D01*
X159297857Y-59600057D02*
X159202619Y-59742914D01*
X159202619Y-59742914D02*
X159155000Y-59933390D01*
X159155000Y-59933390D02*
X159155000Y-60314342D01*
X159155000Y-60314342D02*
X159202619Y-60409580D01*
X159202619Y-60409580D02*
X159250238Y-60457200D01*
X159250238Y-60457200D02*
X159345476Y-60504819D01*
X159345476Y-60504819D02*
X159535952Y-60504819D01*
X159535952Y-60504819D02*
X159631190Y-60457200D01*
X159631190Y-60457200D02*
X159678809Y-60409580D01*
X159678809Y-60409580D02*
X159726428Y-60314342D01*
X159726428Y-60314342D02*
X159726428Y-60076247D01*
X159726428Y-60076247D02*
X159678809Y-59981009D01*
X159678809Y-59981009D02*
X159631190Y-59933390D01*
X159631190Y-59933390D02*
X159535952Y-59885771D01*
X159535952Y-59885771D02*
X159345476Y-59885771D01*
X159345476Y-59885771D02*
X159250238Y-59933390D01*
X159250238Y-59933390D02*
X159202619Y-59981009D01*
X159202619Y-59981009D02*
X159155000Y-60076247D01*
X109190476Y-119684819D02*
X109190476Y-120399104D01*
X109190476Y-120399104D02*
X109142857Y-120541961D01*
X109142857Y-120541961D02*
X109047619Y-120637200D01*
X109047619Y-120637200D02*
X108904762Y-120684819D01*
X108904762Y-120684819D02*
X108809524Y-120684819D01*
X110190476Y-120684819D02*
X109619048Y-120684819D01*
X109904762Y-120684819D02*
X109904762Y-119684819D01*
X109904762Y-119684819D02*
X109809524Y-119827676D01*
X109809524Y-119827676D02*
X109714286Y-119922914D01*
X109714286Y-119922914D02*
X109619048Y-119970533D01*
X110809524Y-119684819D02*
X110904762Y-119684819D01*
X110904762Y-119684819D02*
X111000000Y-119732438D01*
X111000000Y-119732438D02*
X111047619Y-119780057D01*
X111047619Y-119780057D02*
X111095238Y-119875295D01*
X111095238Y-119875295D02*
X111142857Y-120065771D01*
X111142857Y-120065771D02*
X111142857Y-120303866D01*
X111142857Y-120303866D02*
X111095238Y-120494342D01*
X111095238Y-120494342D02*
X111047619Y-120589580D01*
X111047619Y-120589580D02*
X111000000Y-120637200D01*
X111000000Y-120637200D02*
X110904762Y-120684819D01*
X110904762Y-120684819D02*
X110809524Y-120684819D01*
X110809524Y-120684819D02*
X110714286Y-120637200D01*
X110714286Y-120637200D02*
X110666667Y-120589580D01*
X110666667Y-120589580D02*
X110619048Y-120494342D01*
X110619048Y-120494342D02*
X110571429Y-120303866D01*
X110571429Y-120303866D02*
X110571429Y-120065771D01*
X110571429Y-120065771D02*
X110619048Y-119875295D01*
X110619048Y-119875295D02*
X110666667Y-119780057D01*
X110666667Y-119780057D02*
X110714286Y-119732438D01*
X110714286Y-119732438D02*
X110809524Y-119684819D01*
X127202618Y-60364819D02*
X126869285Y-59888628D01*
X126631190Y-60364819D02*
X126631190Y-59364819D01*
X126631190Y-59364819D02*
X127012142Y-59364819D01*
X127012142Y-59364819D02*
X127107380Y-59412438D01*
X127107380Y-59412438D02*
X127154999Y-59460057D01*
X127154999Y-59460057D02*
X127202618Y-59555295D01*
X127202618Y-59555295D02*
X127202618Y-59698152D01*
X127202618Y-59698152D02*
X127154999Y-59793390D01*
X127154999Y-59793390D02*
X127107380Y-59841009D01*
X127107380Y-59841009D02*
X127012142Y-59888628D01*
X127012142Y-59888628D02*
X126631190Y-59888628D01*
X127488333Y-59698152D02*
X127869285Y-59698152D01*
X127631190Y-59364819D02*
X127631190Y-60221961D01*
X127631190Y-60221961D02*
X127678809Y-60317200D01*
X127678809Y-60317200D02*
X127774047Y-60364819D01*
X127774047Y-60364819D02*
X127869285Y-60364819D01*
X128155000Y-59460057D02*
X128202619Y-59412438D01*
X128202619Y-59412438D02*
X128297857Y-59364819D01*
X128297857Y-59364819D02*
X128535952Y-59364819D01*
X128535952Y-59364819D02*
X128631190Y-59412438D01*
X128631190Y-59412438D02*
X128678809Y-59460057D01*
X128678809Y-59460057D02*
X128726428Y-59555295D01*
X128726428Y-59555295D02*
X128726428Y-59650533D01*
X128726428Y-59650533D02*
X128678809Y-59793390D01*
X128678809Y-59793390D02*
X128107381Y-60364819D01*
X128107381Y-60364819D02*
X128726428Y-60364819D01*
X132154819Y-82629166D02*
X131678628Y-82962499D01*
X132154819Y-83200594D02*
X131154819Y-83200594D01*
X131154819Y-83200594D02*
X131154819Y-82819642D01*
X131154819Y-82819642D02*
X131202438Y-82724404D01*
X131202438Y-82724404D02*
X131250057Y-82676785D01*
X131250057Y-82676785D02*
X131345295Y-82629166D01*
X131345295Y-82629166D02*
X131488152Y-82629166D01*
X131488152Y-82629166D02*
X131583390Y-82676785D01*
X131583390Y-82676785D02*
X131631009Y-82724404D01*
X131631009Y-82724404D02*
X131678628Y-82819642D01*
X131678628Y-82819642D02*
X131678628Y-83200594D01*
X131250057Y-82248213D02*
X131202438Y-82200594D01*
X131202438Y-82200594D02*
X131154819Y-82105356D01*
X131154819Y-82105356D02*
X131154819Y-81867261D01*
X131154819Y-81867261D02*
X131202438Y-81772023D01*
X131202438Y-81772023D02*
X131250057Y-81724404D01*
X131250057Y-81724404D02*
X131345295Y-81676785D01*
X131345295Y-81676785D02*
X131440533Y-81676785D01*
X131440533Y-81676785D02*
X131583390Y-81724404D01*
X131583390Y-81724404D02*
X132154819Y-82295832D01*
X132154819Y-82295832D02*
X132154819Y-81676785D01*
%TO.C,Rt4*%
D11*
X127037258Y-67517500D02*
X126562742Y-67517500D01*
X127037258Y-68562500D02*
X126562742Y-68562500D01*
%TO.C,C2*%
X123555580Y-65680000D02*
X123274420Y-65680000D01*
X123555580Y-66700000D02*
X123274420Y-66700000D01*
%TO.C,R9*%
X149094999Y-81080000D02*
X149094999Y-78430000D01*
X151854999Y-78430000D02*
X149094999Y-78430000D01*
X151854999Y-81080000D02*
X149094999Y-81080000D01*
X151854999Y-81080000D02*
X151854999Y-78430000D01*
X151854999Y-82350000D02*
X151854999Y-83730000D01*
X151854999Y-83730000D02*
X150474999Y-83730000D01*
%TO.C,J3*%
X130520000Y-140970000D02*
X131850000Y-140970000D01*
X130520000Y-142300000D02*
X130520000Y-140970000D01*
X133120000Y-140970000D02*
X156040000Y-140970000D01*
X133120000Y-143630000D02*
X133120000Y-140970000D01*
X133120000Y-143630000D02*
X156040000Y-143630000D01*
X156040000Y-143630000D02*
X156040000Y-140970000D01*
%TO.C,D2*%
X140025000Y-132040000D02*
X140025000Y-137100000D01*
X142745000Y-132040000D02*
X140025000Y-132040000D01*
X142745000Y-132040000D02*
X142745000Y-137100000D01*
%TO.C,J2*%
X169220000Y-49980000D02*
X169220000Y-62740000D01*
X169220000Y-49980000D02*
X171880000Y-49980000D01*
X169220000Y-62740000D02*
X171880000Y-62740000D01*
X170550000Y-47380000D02*
X171880000Y-47380000D01*
X171880000Y-47380000D02*
X171880000Y-48710000D01*
X171880000Y-49980000D02*
X171880000Y-62740000D01*
%TO.C,J1*%
X119165000Y-50130000D02*
X119165000Y-48750000D01*
X120545000Y-50130000D02*
X119165000Y-50130000D01*
X121815000Y-47370000D02*
X167645000Y-47370000D01*
X121815000Y-50130000D02*
X121815000Y-47370000D01*
X121815000Y-50130000D02*
X167645000Y-50130000D01*
X167645000Y-50130000D02*
X167645000Y-47370000D01*
%TO.C,D3*%
X135975000Y-132040000D02*
X135975000Y-137100000D01*
X138695000Y-132040000D02*
X135975000Y-132040000D01*
X138695000Y-132040000D02*
X138695000Y-137100000D01*
%TO.C,R10*%
X147192499Y-81267258D02*
X147192499Y-80792742D01*
X148237499Y-81267258D02*
X148237499Y-80792742D01*
%TO.C,TH2*%
X119230000Y-67670000D02*
X119230000Y-70430000D01*
X121880000Y-67670000D02*
X119230000Y-67670000D01*
X121880000Y-67670000D02*
X121880000Y-70430000D01*
X121880000Y-70430000D02*
X119230000Y-70430000D01*
X123150000Y-67670000D02*
X124530000Y-67670000D01*
X124530000Y-67670000D02*
X124530000Y-69050000D01*
%TO.C,Rt1*%
X127417742Y-56117500D02*
X127892258Y-56117500D01*
X127417742Y-57162500D02*
X127892258Y-57162500D01*
%TO.C,R8*%
X153154999Y-81080000D02*
X153154999Y-78430000D01*
X155914999Y-78430000D02*
X153154999Y-78430000D01*
X155914999Y-81080000D02*
X153154999Y-81080000D01*
X155914999Y-81080000D02*
X155914999Y-78430000D01*
X155914999Y-82350000D02*
X155914999Y-83730000D01*
X155914999Y-83730000D02*
X154534999Y-83730000D01*
%TO.C,J8*%
X108670000Y-111270000D02*
X108670000Y-113870000D01*
X108670000Y-111270000D02*
X111330000Y-111270000D01*
X108670000Y-113870000D02*
X111330000Y-113870000D01*
X110000000Y-108670000D02*
X111330000Y-108670000D01*
X111330000Y-108670000D02*
X111330000Y-110000000D01*
X111330000Y-111270000D02*
X111330000Y-113870000D01*
%TO.C,R5*%
X121420000Y-81242500D02*
X121420000Y-78592500D01*
X124180000Y-78592500D02*
X121420000Y-78592500D01*
X124180000Y-81242500D02*
X121420000Y-81242500D01*
X124180000Y-81242500D02*
X124180000Y-78592500D01*
X124180000Y-82512500D02*
X124180000Y-83892500D01*
X124180000Y-83892500D02*
X122800000Y-83892500D01*
%TO.C,J7*%
X174670000Y-97270000D02*
X174670000Y-99870000D01*
X174670000Y-97270000D02*
X177330000Y-97270000D01*
X174670000Y-99870000D02*
X177330000Y-99870000D01*
X176000000Y-94670000D02*
X177330000Y-94670000D01*
X177330000Y-94670000D02*
X177330000Y-96000000D01*
X177330000Y-97270000D02*
X177330000Y-99870000D01*
%TO.C,Rt5*%
X158417742Y-56067500D02*
X158892258Y-56067500D01*
X158417742Y-57112500D02*
X158892258Y-57112500D01*
%TO.C,R6*%
X158277257Y-79277500D02*
X157802741Y-79277500D01*
X158277257Y-80322500D02*
X157802741Y-80322500D01*
%TO.C,D1*%
X144075000Y-132040000D02*
X144075000Y-137100000D01*
X146795000Y-132040000D02*
X144075000Y-132040000D01*
X146795000Y-132040000D02*
X146795000Y-137100000D01*
%TO.C,R4*%
X115677500Y-81769758D02*
X115677500Y-81295242D01*
X116722500Y-81769758D02*
X116722500Y-81295242D01*
%TO.C,Q1*%
X126160000Y-80990000D02*
X127980000Y-80990000D01*
X126160000Y-81040000D02*
X126160000Y-80990000D01*
X126160000Y-84110000D02*
X126160000Y-84060000D01*
X127980000Y-80990000D02*
X127980000Y-81040000D01*
X127980000Y-84060000D02*
X127980000Y-84110000D01*
X127980000Y-84110000D02*
X126160000Y-84110000D01*
X125620000Y-81040000D02*
X125380000Y-80710000D01*
X125860000Y-80710000D01*
X125620000Y-81040000D01*
G36*
X125620000Y-81040000D02*
G01*
X125380000Y-80710000D01*
X125860000Y-80710000D01*
X125620000Y-81040000D01*
G37*
%TO.C,J12*%
X114920000Y-47370000D02*
X116300000Y-47370000D01*
X114920000Y-48750000D02*
X114920000Y-47370000D01*
X114920000Y-50020000D02*
X114920000Y-52670000D01*
X114920000Y-50020000D02*
X117680000Y-50020000D01*
X114920000Y-52670000D02*
X117680000Y-52670000D01*
X117680000Y-50020000D02*
X117680000Y-52670000D01*
%TO.C,R3*%
X117570000Y-81232500D02*
X117570000Y-78582500D01*
X120330000Y-78582500D02*
X117570000Y-78582500D01*
X120330000Y-81232500D02*
X117570000Y-81232500D01*
X120330000Y-81232500D02*
X120330000Y-78582500D01*
X120330000Y-82502500D02*
X120330000Y-83882500D01*
X120330000Y-83882500D02*
X118950000Y-83882500D01*
%TO.C,C3*%
X155230580Y-56050000D02*
X154949420Y-56050000D01*
X155230580Y-57070000D02*
X154949420Y-57070000D01*
%TO.C,TH1*%
X120330000Y-57970000D02*
X120330000Y-60730000D01*
X122980000Y-57970000D02*
X120330000Y-57970000D01*
X122980000Y-57970000D02*
X122980000Y-60730000D01*
X122980000Y-60730000D02*
X120330000Y-60730000D01*
X124250000Y-57970000D02*
X125630000Y-57970000D01*
X125630000Y-57970000D02*
X125630000Y-59350000D01*
%TO.C,Rt7*%
X157622742Y-65817500D02*
X158097258Y-65817500D01*
X157622742Y-66862500D02*
X158097258Y-66862500D01*
%TO.C,C1*%
X124675580Y-56130000D02*
X124394420Y-56130000D01*
X124675580Y-57150000D02*
X124394420Y-57150000D01*
%TO.C,Rt8*%
X158112258Y-67507500D02*
X157637742Y-67507500D01*
X158112258Y-68552500D02*
X157637742Y-68552500D01*
%TO.C,TH3*%
X150860000Y-58080000D02*
X150860000Y-60840000D01*
X153510000Y-58080000D02*
X150860000Y-58080000D01*
X153510000Y-58080000D02*
X153510000Y-60840000D01*
X153510000Y-60840000D02*
X150860000Y-60840000D01*
X154780000Y-58080000D02*
X156160000Y-58080000D01*
X156160000Y-58080000D02*
X156160000Y-59460000D01*
%TO.C,J4*%
X108670000Y-79270000D02*
X108670000Y-81870000D01*
X108670000Y-79270000D02*
X111330000Y-79270000D01*
X108670000Y-81870000D02*
X111330000Y-81870000D01*
X110000000Y-76670000D02*
X111330000Y-76670000D01*
X111330000Y-76670000D02*
X111330000Y-78000000D01*
X111330000Y-79270000D02*
X111330000Y-81870000D01*
%TO.C,J9*%
X174670000Y-111270000D02*
X174670000Y-113870000D01*
X174670000Y-111270000D02*
X177330000Y-111270000D01*
X174670000Y-113870000D02*
X177330000Y-113870000D01*
X176000000Y-108670000D02*
X177330000Y-108670000D01*
X177330000Y-108670000D02*
X177330000Y-110000000D01*
X177330000Y-111270000D02*
X177330000Y-113870000D01*
%TO.C,D4*%
X131925000Y-132040000D02*
X131925000Y-137100000D01*
X134645000Y-132040000D02*
X131925000Y-132040000D01*
X134645000Y-132040000D02*
X134645000Y-137100000D01*
%TO.C,J6*%
X108670000Y-98270000D02*
X108670000Y-100870000D01*
X108670000Y-98270000D02*
X111330000Y-98270000D01*
X108670000Y-100870000D02*
X111330000Y-100870000D01*
X110000000Y-95670000D02*
X111330000Y-95670000D01*
X111330000Y-95670000D02*
X111330000Y-97000000D01*
X111330000Y-98270000D02*
X111330000Y-100870000D01*
%TO.C,C4*%
X154775580Y-65810000D02*
X154494420Y-65810000D01*
X154775580Y-66830000D02*
X154494420Y-66830000D01*
%TO.C,R1*%
X126637258Y-79380000D02*
X126162742Y-79380000D01*
X126637258Y-80425000D02*
X126162742Y-80425000D01*
%TO.C,R7*%
X161917499Y-82607258D02*
X161917499Y-82132742D01*
X162962499Y-82607258D02*
X162962499Y-82132742D01*
%TO.C,Q2*%
X158202499Y-80820000D02*
X160022499Y-80820000D01*
X158202499Y-80870000D02*
X158202499Y-80820000D01*
X158202499Y-83940000D02*
X158202499Y-83890000D01*
X160022499Y-80820000D02*
X160022499Y-80870000D01*
X160022499Y-83890000D02*
X160022499Y-83940000D01*
X160022499Y-83940000D02*
X158202499Y-83940000D01*
X157662499Y-80870000D02*
X157422499Y-80540000D01*
X157902499Y-80540000D01*
X157662499Y-80870000D01*
G36*
X157662499Y-80870000D02*
G01*
X157422499Y-80540000D01*
X157902499Y-80540000D01*
X157662499Y-80870000D01*
G37*
%TO.C,TH4*%
X150460000Y-67670000D02*
X150460000Y-70430000D01*
X153110000Y-67670000D02*
X150460000Y-67670000D01*
X153110000Y-67670000D02*
X153110000Y-70430000D01*
X153110000Y-70430000D02*
X150460000Y-70430000D01*
X154380000Y-67670000D02*
X155760000Y-67670000D01*
X155760000Y-67670000D02*
X155760000Y-69050000D01*
%TO.C,Rt3*%
X126562742Y-65677500D02*
X127037258Y-65677500D01*
X126562742Y-66722500D02*
X127037258Y-66722500D01*
%TO.C,J5*%
X174670000Y-79270000D02*
X174670000Y-81870000D01*
X174670000Y-79270000D02*
X177330000Y-79270000D01*
X174670000Y-81870000D02*
X177330000Y-81870000D01*
X176000000Y-76670000D02*
X177330000Y-76670000D01*
X177330000Y-76670000D02*
X177330000Y-78000000D01*
X177330000Y-79270000D02*
X177330000Y-81870000D01*
%TO.C,J11*%
X174670000Y-124270000D02*
X174670000Y-126870000D01*
X174670000Y-124270000D02*
X177330000Y-124270000D01*
X174670000Y-126870000D02*
X177330000Y-126870000D01*
X176000000Y-121670000D02*
X177330000Y-121670000D01*
X177330000Y-121670000D02*
X177330000Y-123000000D01*
X177330000Y-124270000D02*
X177330000Y-126870000D01*
%TO.C,Rt6*%
X158892258Y-57977500D02*
X158417742Y-57977500D01*
X158892258Y-59022500D02*
X158417742Y-59022500D01*
%TO.C,J10*%
X108670000Y-124270000D02*
X108670000Y-126870000D01*
X108670000Y-124270000D02*
X111330000Y-124270000D01*
X108670000Y-126870000D02*
X111330000Y-126870000D01*
X110000000Y-121670000D02*
X111330000Y-121670000D01*
X111330000Y-121670000D02*
X111330000Y-123000000D01*
X111330000Y-124270000D02*
X111330000Y-126870000D01*
%TO.C,Rt2*%
X127892258Y-57692500D02*
X127417742Y-57692500D01*
X127892258Y-58737500D02*
X127417742Y-58737500D01*
%TO.C,R2*%
X129747500Y-82699758D02*
X129747500Y-82225242D01*
X130792500Y-82699758D02*
X130792500Y-82225242D01*
%TD*%
M02*
