%TF.GenerationSoftware,KiCad,Pcbnew,10.0.1*%
%TF.CreationDate,2026-08-22T13:00:34-07:00*%
%TF.ProjectId,PVDX_BatteryBoard,50564458-5f42-4617-9474-657279426f61,rev?*%
%TF.SameCoordinates,Original*%
%TF.FileFunction,Paste,Top*%
%TF.FilePolarity,Positive*%
%FSLAX46Y46*%
G04 Gerber Fmt 4.6, Leading zero omitted, Abs format (unit mm)*
G04 Created by KiCad (PCBNEW 10.0.1) date 2026-08-22 13:00:34*
%MOMM*%
%LPD*%
G01*
G04 APERTURE LIST*
G04 Aperture macros list*
%AMRoundRect*
0 Rectangle with rounded corners*
0 $1 Rounding radius*
0 $2 $3 $4 $5 $6 $7 $8 $9 X,Y pos of 4 corners*
0 Add a 4 corners polygon primitive as box body*
4,1,4,$2,$3,$4,$5,$6,$7,$8,$9,$2,$3,0*
0 Add four circle primitives for the rounded corners*
1,1,$1+$1,$2,$3*
1,1,$1+$1,$4,$5*
1,1,$1+$1,$6,$7*
1,1,$1+$1,$8,$9*
0 Add four rect primitives between the rounded corners*
20,1,$1+$1,$2,$3,$4,$5,0*
20,1,$1+$1,$4,$5,$6,$7,0*
20,1,$1+$1,$6,$7,$8,$9,0*
20,1,$1+$1,$8,$9,$2,$3,0*%
G04 Aperture macros list end*
%ADD10RoundRect,0.200000X0.200000X0.275000X-0.200000X0.275000X-0.200000X-0.275000X0.200000X-0.275000X0*%
%ADD11RoundRect,0.225000X0.225000X0.250000X-0.225000X0.250000X-0.225000X-0.250000X0.225000X-0.250000X0*%
%ADD12RoundRect,0.250000X-0.800000X0.450000X-0.800000X-0.450000X0.800000X-0.450000X0.800000X0.450000X0*%
%ADD13RoundRect,0.200000X0.275000X-0.200000X0.275000X0.200000X-0.275000X0.200000X-0.275000X-0.200000X0*%
%ADD14RoundRect,0.200000X-0.200000X-0.275000X0.200000X-0.275000X0.200000X0.275000X-0.200000X0.275000X0*%
%ADD15RoundRect,0.150000X-0.512500X-0.150000X0.512500X-0.150000X0.512500X0.150000X-0.512500X0.150000X0*%
G04 APERTURE END LIST*
D10*
%TO.C,Rt4*%
X127625000Y-68040000D03*
X125975000Y-68040000D03*
%TD*%
D11*
%TO.C,C2*%
X124190000Y-66190000D03*
X122640000Y-66190000D03*
%TD*%
D12*
%TO.C,D2*%
X141385000Y-133000000D03*
X141385000Y-137400000D03*
%TD*%
%TO.C,D3*%
X137335000Y-133000000D03*
X137335000Y-137400000D03*
%TD*%
D13*
%TO.C,R10*%
X147714999Y-81855000D03*
X147714999Y-80205000D03*
%TD*%
D14*
%TO.C,Rt1*%
X126830000Y-56640000D03*
X128480000Y-56640000D03*
%TD*%
%TO.C,Rt5*%
X157830000Y-56590000D03*
X159480000Y-56590000D03*
%TD*%
D10*
%TO.C,R6*%
X158864999Y-79800000D03*
X157214999Y-79800000D03*
%TD*%
D12*
%TO.C,D1*%
X145435000Y-133000000D03*
X145435000Y-137400000D03*
%TD*%
D13*
%TO.C,R4*%
X116200000Y-82357500D03*
X116200000Y-80707500D03*
%TD*%
D15*
%TO.C,Q1*%
X125932500Y-81600000D03*
X125932500Y-82550000D03*
X125932500Y-83500000D03*
X128207500Y-83500000D03*
X128207500Y-82550000D03*
X128207500Y-81600000D03*
%TD*%
D11*
%TO.C,C3*%
X155865000Y-56560000D03*
X154315000Y-56560000D03*
%TD*%
D14*
%TO.C,Rt7*%
X157035000Y-66340000D03*
X158685000Y-66340000D03*
%TD*%
D11*
%TO.C,C1*%
X125310000Y-56640000D03*
X123760000Y-56640000D03*
%TD*%
D10*
%TO.C,Rt8*%
X158700000Y-68030000D03*
X157050000Y-68030000D03*
%TD*%
D12*
%TO.C,D4*%
X133285000Y-133000000D03*
X133285000Y-137400000D03*
%TD*%
D11*
%TO.C,C4*%
X155410000Y-66320000D03*
X153860000Y-66320000D03*
%TD*%
D10*
%TO.C,R1*%
X127225000Y-79902500D03*
X125575000Y-79902500D03*
%TD*%
D13*
%TO.C,R7*%
X162439999Y-83195000D03*
X162439999Y-81545000D03*
%TD*%
D15*
%TO.C,Q2*%
X157974999Y-81430000D03*
X157974999Y-82380000D03*
X157974999Y-83330000D03*
X160249999Y-83330000D03*
X160249999Y-82380000D03*
X160249999Y-81430000D03*
%TD*%
D14*
%TO.C,Rt3*%
X125975000Y-66200000D03*
X127625000Y-66200000D03*
%TD*%
D10*
%TO.C,Rt6*%
X159480000Y-58500000D03*
X157830000Y-58500000D03*
%TD*%
%TO.C,Rt2*%
X128480000Y-58215000D03*
X126830000Y-58215000D03*
%TD*%
D13*
%TO.C,R2*%
X130270000Y-83287500D03*
X130270000Y-81637500D03*
%TD*%
M02*
